<mxfile host="app.diagrams.net" modified="2023-04-01T00:02:08.877Z" agent="Mozilla/5.0 (Windows NT 10.0; Win64; x64) AppleWebKit/537.36 (KHTML, like Gecko) Chrome/111.0.0.0 Safari/537.36" etag="_yfXmi152z-c2_qh2obZ" version="21.1.1" type="google">
  <diagram name="PÃ¡gina-1" id="qcoyN-KeSgyud3IU-_eE">
    <mxGraphModel grid="1" page="1" gridSize="10" guides="1" tooltips="1" connect="1" arrows="1" fold="1" pageScale="1" pageWidth="827" pageHeight="1169" math="0" shadow="0">
      <root>
        <mxCell id="0" />
        <mxCell id="1" parent="0" />
        <mxCell id="V16zCYLXZQbHPPU0lnjb-9" value="&lt;font style=&quot;vertical-align: inherit;&quot;&gt;&lt;font style=&quot;vertical-align: inherit;&quot;&gt;Producto&lt;br&gt;&lt;/font&gt;&lt;/font&gt;" style="whiteSpace=wrap;html=1;align=center;" vertex="1" parent="1">
          <mxGeometry x="301" y="661.38" width="100" height="40" as="geometry" />
        </mxCell>
        <mxCell id="V16zCYLXZQbHPPU0lnjb-13" value="&lt;font style=&quot;vertical-align: inherit;&quot;&gt;&lt;font style=&quot;vertical-align: inherit;&quot;&gt;&lt;font style=&quot;vertical-align: inherit;&quot;&gt;&lt;font style=&quot;vertical-align: inherit;&quot;&gt;Gestiona&lt;/font&gt;&lt;/font&gt;&lt;/font&gt;&lt;/font&gt;" style="shape=rhombus;perimeter=rhombusPerimeter;whiteSpace=wrap;html=1;align=center;" vertex="1" parent="1">
          <mxGeometry x="475" y="651.38" width="120" height="60" as="geometry" />
        </mxCell>
        <mxCell id="V16zCYLXZQbHPPU0lnjb-22" value="" style="endArrow=none;html=1;rounded=0;exitX=1;exitY=0.5;exitDx=0;exitDy=0;entryX=0;entryY=0.5;entryDx=0;entryDy=0;" edge="1" parent="1" source="V16zCYLXZQbHPPU0lnjb-9" target="V16zCYLXZQbHPPU0lnjb-13">
          <mxGeometry width="50" height="50" relative="1" as="geometry">
            <mxPoint x="551" y="681.38" as="sourcePoint" />
            <mxPoint x="601" y="631.38" as="targetPoint" />
          </mxGeometry>
        </mxCell>
        <mxCell id="V16zCYLXZQbHPPU0lnjb-23" value="&lt;font style=&quot;vertical-align: inherit;&quot;&gt;&lt;font class=&quot;custom-cursor-default-hover&quot; style=&quot;vertical-align: inherit;&quot;&gt;M:1&lt;/font&gt;&lt;/font&gt;" style="text;html=1;strokeColor=none;fillColor=none;align=center;verticalAlign=middle;whiteSpace=wrap;rounded=0;" vertex="1" parent="1">
          <mxGeometry x="664" y="473.38" width="60" height="30" as="geometry" />
        </mxCell>
        <mxCell id="V16zCYLXZQbHPPU0lnjb-24" value="&lt;font style=&quot;vertical-align: inherit;&quot;&gt;&lt;font style=&quot;vertical-align: inherit;&quot;&gt;&lt;font style=&quot;vertical-align: inherit;&quot;&gt;&lt;font style=&quot;vertical-align: inherit;&quot;&gt;M&lt;/font&gt;&lt;/font&gt;&lt;/font&gt;&lt;/font&gt;" style="text;html=1;strokeColor=none;fillColor=none;align=center;verticalAlign=middle;whiteSpace=wrap;rounded=0;" vertex="1" parent="1">
          <mxGeometry x="381" y="681.38" width="60" height="30" as="geometry" />
        </mxCell>
        <mxCell id="V16zCYLXZQbHPPU0lnjb-25" value="&lt;font style=&quot;vertical-align: inherit;&quot;&gt;&lt;font style=&quot;vertical-align: inherit;&quot;&gt;&lt;font style=&quot;vertical-align: inherit;&quot;&gt;&lt;font style=&quot;vertical-align: inherit;&quot;&gt;&lt;font style=&quot;vertical-align: inherit;&quot;&gt;&lt;font style=&quot;vertical-align: inherit;&quot;&gt;M:1&lt;/font&gt;&lt;/font&gt;&lt;/font&gt;&lt;/font&gt;&lt;/font&gt;&lt;/font&gt;" style="text;html=1;strokeColor=none;fillColor=none;align=center;verticalAlign=middle;whiteSpace=wrap;rounded=0;" vertex="1" parent="1">
          <mxGeometry x="505" y="709.13" width="60" height="30" as="geometry" />
        </mxCell>
        <mxCell id="V16zCYLXZQbHPPU0lnjb-30" value="&lt;font style=&quot;vertical-align: inherit;&quot;&gt;&lt;font style=&quot;vertical-align: inherit;&quot;&gt;&lt;font style=&quot;vertical-align: inherit;&quot;&gt;&lt;font style=&quot;vertical-align: inherit;&quot;&gt;&lt;font style=&quot;vertical-align: inherit;&quot;&gt;&lt;font style=&quot;vertical-align: inherit;&quot;&gt;&lt;font style=&quot;vertical-align: inherit;&quot;&gt;&lt;font style=&quot;vertical-align: inherit;&quot;&gt;&lt;u&gt;IdProducto&lt;/u&gt;&lt;/font&gt;&lt;/font&gt;&lt;/font&gt;&lt;/font&gt;&lt;/font&gt;&lt;/font&gt;&lt;/font&gt;&lt;/font&gt;" style="ellipse;whiteSpace=wrap;html=1;align=center;" vertex="1" parent="1">
          <mxGeometry x="140" y="644.13" width="100" height="40" as="geometry" />
        </mxCell>
        <mxCell id="V16zCYLXZQbHPPU0lnjb-31" value="&lt;font style=&quot;vertical-align: inherit;&quot;&gt;&lt;font style=&quot;vertical-align: inherit;&quot;&gt;nombre&lt;/font&gt;&lt;/font&gt;" style="ellipse;whiteSpace=wrap;html=1;align=center;" vertex="1" parent="1">
          <mxGeometry x="151" y="501.38" width="100" height="40" as="geometry" />
        </mxCell>
        <mxCell id="V16zCYLXZQbHPPU0lnjb-32" value="&lt;font style=&quot;vertical-align: inherit;&quot;&gt;&lt;font style=&quot;vertical-align: inherit;&quot;&gt;&lt;font style=&quot;vertical-align: inherit;&quot;&gt;&lt;font class=&quot;custom-cursor-default-hover&quot; style=&quot;vertical-align: inherit;&quot;&gt;CantidadProducto&lt;/font&gt;&lt;/font&gt;&lt;/font&gt;&lt;/font&gt;" style="ellipse;whiteSpace=wrap;html=1;align=center;" vertex="1" parent="1">
          <mxGeometry x="129" y="604.13" width="111" height="34.13" as="geometry" />
        </mxCell>
        <mxCell id="V16zCYLXZQbHPPU0lnjb-33" value="&lt;font style=&quot;vertical-align: inherit;&quot;&gt;&lt;font style=&quot;vertical-align: inherit;&quot;&gt;&lt;font style=&quot;vertical-align: inherit;&quot;&gt;&lt;font style=&quot;vertical-align: inherit;&quot;&gt;fechaFabricacion&lt;/font&gt;&lt;/font&gt;&lt;/font&gt;&lt;/font&gt;" style="ellipse;whiteSpace=wrap;html=1;align=center;" vertex="1" parent="1">
          <mxGeometry x="311" y="468.38" width="100" height="40" as="geometry" />
        </mxCell>
        <mxCell id="V16zCYLXZQbHPPU0lnjb-34" value="&lt;font style=&quot;vertical-align: inherit;&quot;&gt;&lt;font style=&quot;vertical-align: inherit;&quot;&gt;&lt;font style=&quot;vertical-align: inherit;&quot;&gt;&lt;font style=&quot;vertical-align: inherit;&quot;&gt;&lt;font style=&quot;vertical-align: inherit;&quot;&gt;&lt;font style=&quot;vertical-align: inherit;&quot;&gt;unidadMedida&lt;/font&gt;&lt;/font&gt;&lt;/font&gt;&lt;/font&gt;&lt;/font&gt;&lt;/font&gt;" style="ellipse;whiteSpace=wrap;html=1;align=center;" vertex="1" parent="1">
          <mxGeometry x="381" y="531.38" width="100" height="40" as="geometry" />
        </mxCell>
        <mxCell id="V16zCYLXZQbHPPU0lnjb-35" value="&lt;font style=&quot;vertical-align: inherit;&quot;&gt;&lt;font style=&quot;vertical-align: inherit;&quot;&gt;&lt;font style=&quot;vertical-align: inherit;&quot;&gt;&lt;font style=&quot;vertical-align: inherit;&quot;&gt;&lt;font style=&quot;vertical-align: inherit;&quot;&gt;&lt;font style=&quot;vertical-align: inherit;&quot;&gt;valorUnidadMedida&lt;/font&gt;&lt;/font&gt;&lt;/font&gt;&lt;/font&gt;&lt;/font&gt;&lt;/font&gt;" style="ellipse;whiteSpace=wrap;html=1;align=center;" vertex="1" parent="1">
          <mxGeometry x="191" y="451.38" width="110" height="45" as="geometry" />
        </mxCell>
        <mxCell id="V16zCYLXZQbHPPU0lnjb-36" value="&lt;font style=&quot;vertical-align: inherit;&quot;&gt;&lt;font style=&quot;vertical-align: inherit;&quot;&gt;&lt;font style=&quot;vertical-align: inherit;&quot;&gt;&lt;font style=&quot;vertical-align: inherit;&quot;&gt;&lt;font style=&quot;vertical-align: inherit;&quot;&gt;&lt;font style=&quot;vertical-align: inherit;&quot;&gt;color&lt;/font&gt;&lt;/font&gt;&lt;/font&gt;&lt;/font&gt;&lt;/font&gt;&lt;/font&gt;" style="ellipse;whiteSpace=wrap;html=1;align=center;" vertex="1" parent="1">
          <mxGeometry x="420" y="736.38" width="100" height="40" as="geometry" />
        </mxCell>
        <mxCell id="V16zCYLXZQbHPPU0lnjb-37" value="&lt;font style=&quot;vertical-align: inherit;&quot;&gt;&lt;font style=&quot;vertical-align: inherit;&quot;&gt;&lt;font style=&quot;vertical-align: inherit;&quot;&gt;&lt;font style=&quot;vertical-align: inherit;&quot;&gt;&lt;font style=&quot;vertical-align: inherit;&quot;&gt;&lt;font class=&quot;custom-cursor-default-hover&quot; style=&quot;vertical-align: inherit;&quot;&gt;Color&lt;/font&gt;&lt;/font&gt;&lt;/font&gt;&lt;/font&gt;&lt;/font&gt;&lt;/font&gt;" style="ellipse;whiteSpace=wrap;html=1;align=center;" vertex="1" parent="1">
          <mxGeometry x="140" y="555.13" width="100" height="40" as="geometry" />
        </mxCell>
        <mxCell id="V16zCYLXZQbHPPU0lnjb-38" value="&lt;font style=&quot;vertical-align: inherit;&quot;&gt;&lt;font style=&quot;vertical-align: inherit;&quot;&gt;&lt;font style=&quot;vertical-align: inherit;&quot;&gt;&lt;font style=&quot;vertical-align: inherit;&quot;&gt;&lt;font style=&quot;vertical-align: inherit;&quot;&gt;&lt;font style=&quot;vertical-align: inherit;&quot;&gt;&lt;font style=&quot;vertical-align: inherit;&quot;&gt;&lt;font style=&quot;vertical-align: inherit;&quot;&gt;promocion&lt;/font&gt;&lt;/font&gt;&lt;/font&gt;&lt;/font&gt;&lt;/font&gt;&lt;/font&gt;&lt;/font&gt;&lt;/font&gt;" style="ellipse;whiteSpace=wrap;html=1;align=center;" vertex="1" parent="1">
          <mxGeometry x="170" y="743.88" width="100" height="40" as="geometry" />
        </mxCell>
        <mxCell id="V16zCYLXZQbHPPU0lnjb-41" value="" style="endArrow=none;html=1;rounded=0;entryX=0.5;entryY=1;entryDx=0;entryDy=0;" edge="1" parent="1" source="V16zCYLXZQbHPPU0lnjb-9" target="V16zCYLXZQbHPPU0lnjb-34">
          <mxGeometry width="50" height="50" relative="1" as="geometry">
            <mxPoint x="461" y="611.38" as="sourcePoint" />
            <mxPoint x="511" y="561.38" as="targetPoint" />
          </mxGeometry>
        </mxCell>
        <mxCell id="V16zCYLXZQbHPPU0lnjb-42" value="" style="endArrow=none;html=1;rounded=0;entryX=0.5;entryY=1;entryDx=0;entryDy=0;" edge="1" parent="1" target="V16zCYLXZQbHPPU0lnjb-33">
          <mxGeometry width="50" height="50" relative="1" as="geometry">
            <mxPoint x="361" y="661.38" as="sourcePoint" />
            <mxPoint x="475" y="501.38" as="targetPoint" />
          </mxGeometry>
        </mxCell>
        <mxCell id="V16zCYLXZQbHPPU0lnjb-43" value="" style="endArrow=none;html=1;rounded=0;entryX=0.71;entryY=1.058;entryDx=0;entryDy=0;entryPerimeter=0;exitX=0.5;exitY=0;exitDx=0;exitDy=0;" edge="1" parent="1" source="V16zCYLXZQbHPPU0lnjb-9" target="V16zCYLXZQbHPPU0lnjb-35">
          <mxGeometry width="50" height="50" relative="1" as="geometry">
            <mxPoint x="461" y="611.38" as="sourcePoint" />
            <mxPoint x="511" y="561.38" as="targetPoint" />
          </mxGeometry>
        </mxCell>
        <mxCell id="V16zCYLXZQbHPPU0lnjb-44" value="" style="endArrow=none;html=1;rounded=0;entryX=1;entryY=1;entryDx=0;entryDy=0;exitX=0.25;exitY=0;exitDx=0;exitDy=0;" edge="1" parent="1" source="V16zCYLXZQbHPPU0lnjb-9" target="V16zCYLXZQbHPPU0lnjb-31">
          <mxGeometry width="50" height="50" relative="1" as="geometry">
            <mxPoint x="461" y="611.38" as="sourcePoint" />
            <mxPoint x="511" y="561.38" as="targetPoint" />
          </mxGeometry>
        </mxCell>
        <mxCell id="V16zCYLXZQbHPPU0lnjb-45" value="" style="endArrow=none;html=1;rounded=0;entryX=1;entryY=1;entryDx=0;entryDy=0;exitX=0;exitY=0;exitDx=0;exitDy=0;" edge="1" parent="1" source="V16zCYLXZQbHPPU0lnjb-9" target="V16zCYLXZQbHPPU0lnjb-37">
          <mxGeometry width="50" height="50" relative="1" as="geometry">
            <mxPoint x="461" y="611.38" as="sourcePoint" />
            <mxPoint x="511" y="561.38" as="targetPoint" />
          </mxGeometry>
        </mxCell>
        <mxCell id="V16zCYLXZQbHPPU0lnjb-46" value="" style="endArrow=none;html=1;rounded=0;entryX=0.99;entryY=0.725;entryDx=0;entryDy=0;exitX=0;exitY=0.5;exitDx=0;exitDy=0;entryPerimeter=0;" edge="1" parent="1" source="V16zCYLXZQbHPPU0lnjb-9" target="V16zCYLXZQbHPPU0lnjb-32">
          <mxGeometry width="50" height="50" relative="1" as="geometry">
            <mxPoint x="461" y="611.38" as="sourcePoint" />
            <mxPoint x="511" y="561.38" as="targetPoint" />
          </mxGeometry>
        </mxCell>
        <mxCell id="V16zCYLXZQbHPPU0lnjb-48" value="" style="endArrow=none;html=1;rounded=0;exitX=1;exitY=0.5;exitDx=0;exitDy=0;" edge="1" parent="1" source="V16zCYLXZQbHPPU0lnjb-30">
          <mxGeometry width="50" height="50" relative="1" as="geometry">
            <mxPoint x="461" y="611.38" as="sourcePoint" />
            <mxPoint x="300" y="691.38" as="targetPoint" />
          </mxGeometry>
        </mxCell>
        <mxCell id="V16zCYLXZQbHPPU0lnjb-49" value="" style="endArrow=none;html=1;rounded=0;exitX=1;exitY=0;exitDx=0;exitDy=0;entryX=0.342;entryY=0.997;entryDx=0;entryDy=0;entryPerimeter=0;" edge="1" parent="1" source="V16zCYLXZQbHPPU0lnjb-38" target="V16zCYLXZQbHPPU0lnjb-9">
          <mxGeometry width="50" height="50" relative="1" as="geometry">
            <mxPoint x="461" y="611.38" as="sourcePoint" />
            <mxPoint x="351" y="701.38" as="targetPoint" />
          </mxGeometry>
        </mxCell>
        <mxCell id="V16zCYLXZQbHPPU0lnjb-51" value="" style="endArrow=none;html=1;rounded=0;entryX=0.5;entryY=0;entryDx=0;entryDy=0;exitX=0.75;exitY=1;exitDx=0;exitDy=0;" edge="1" parent="1" source="V16zCYLXZQbHPPU0lnjb-9" target="V16zCYLXZQbHPPU0lnjb-36">
          <mxGeometry width="50" height="50" relative="1" as="geometry">
            <mxPoint x="461" y="611.38" as="sourcePoint" />
            <mxPoint x="511" y="561.38" as="targetPoint" />
          </mxGeometry>
        </mxCell>
        <mxCell id="O72GUm6GRssJf6xYcq4_-27" value="&lt;div&gt;OrdenProduccion&lt;/div&gt;" style="whiteSpace=wrap;html=1;align=center;" vertex="1" parent="1">
          <mxGeometry x="1299.5" y="1351.38" width="110" height="43" as="geometry" />
        </mxCell>
        <mxCell id="O72GUm6GRssJf6xYcq4_-29" value="Consume" style="shape=rhombus;perimeter=rhombusPerimeter;whiteSpace=wrap;html=1;align=center;" vertex="1" parent="1">
          <mxGeometry x="1132" y="1344.38" width="120" height="60" as="geometry" />
        </mxCell>
        <mxCell id="O72GUm6GRssJf6xYcq4_-30" value="&lt;div&gt;fechaProduccion&lt;/div&gt;" style="ellipse;whiteSpace=wrap;html=1;align=center;" vertex="1" parent="1">
          <mxGeometry x="1309.5" y="1424.38" width="100" height="40" as="geometry" />
        </mxCell>
        <mxCell id="O72GUm6GRssJf6xYcq4_-32" value="" style="endArrow=none;html=1;rounded=0;entryX=1;entryY=0.5;entryDx=0;entryDy=0;" edge="1" parent="1" source="O72GUm6GRssJf6xYcq4_-27" target="O72GUm6GRssJf6xYcq4_-29">
          <mxGeometry relative="1" as="geometry">
            <mxPoint x="1062" y="1394.38" as="sourcePoint" />
            <mxPoint x="1222" y="1394.38" as="targetPoint" />
          </mxGeometry>
        </mxCell>
        <mxCell id="O72GUm6GRssJf6xYcq4_-33" value="&lt;div&gt;Insumos&lt;/div&gt;" style="whiteSpace=wrap;html=1;align=center;" vertex="1" parent="1">
          <mxGeometry x="957" y="1355.38" width="100" height="40" as="geometry" />
        </mxCell>
        <mxCell id="O72GUm6GRssJf6xYcq4_-35" value="idOrden" style="ellipse;whiteSpace=wrap;html=1;align=center;fontStyle=4;" vertex="1" parent="1">
          <mxGeometry x="1254.5" y="1289.38" width="100" height="40" as="geometry" />
        </mxCell>
        <mxCell id="O72GUm6GRssJf6xYcq4_-36" value="&lt;div&gt;IdInsumo&lt;/div&gt;" style="ellipse;whiteSpace=wrap;html=1;align=center;fontStyle=4;" vertex="1" parent="1">
          <mxGeometry x="833" y="1307.88" width="100" height="40" as="geometry" />
        </mxCell>
        <mxCell id="O72GUm6GRssJf6xYcq4_-37" value="" style="endArrow=none;html=1;rounded=0;entryX=0.73;entryY=0.975;entryDx=0;entryDy=0;entryPerimeter=0;exitX=0;exitY=0;exitDx=0;exitDy=0;" edge="1" parent="1" source="O72GUm6GRssJf6xYcq4_-33" target="O72GUm6GRssJf6xYcq4_-36">
          <mxGeometry relative="1" as="geometry">
            <mxPoint x="697" y="1395.38" as="sourcePoint" />
            <mxPoint x="857" y="1395.38" as="targetPoint" />
          </mxGeometry>
        </mxCell>
        <mxCell id="O72GUm6GRssJf6xYcq4_-38" value="nombreInsumo" style="ellipse;whiteSpace=wrap;html=1;align=center;" vertex="1" parent="1">
          <mxGeometry x="1040.5" y="1424.38" width="100" height="40" as="geometry" />
        </mxCell>
        <mxCell id="O72GUm6GRssJf6xYcq4_-39" value="cantidad" style="ellipse;whiteSpace=wrap;html=1;align=center;" vertex="1" parent="1">
          <mxGeometry x="812.5" y="1402.88" width="100" height="40" as="geometry" />
        </mxCell>
        <mxCell id="O72GUm6GRssJf6xYcq4_-40" value="unidadMedida" style="ellipse;whiteSpace=wrap;html=1;align=center;" vertex="1" parent="1">
          <mxGeometry x="907" y="1260" width="100" height="40" as="geometry" />
        </mxCell>
        <mxCell id="O72GUm6GRssJf6xYcq4_-41" value="color" style="ellipse;whiteSpace=wrap;html=1;align=center;" vertex="1" parent="1">
          <mxGeometry x="907" y="1434.38" width="100" height="40" as="geometry" />
        </mxCell>
        <mxCell id="O72GUm6GRssJf6xYcq4_-43" value="" style="endArrow=none;html=1;rounded=0;exitX=0.66;exitY=0.05;exitDx=0;exitDy=0;exitPerimeter=0;entryX=0.25;entryY=1;entryDx=0;entryDy=0;" edge="1" parent="1" source="O72GUm6GRssJf6xYcq4_-41" target="O72GUm6GRssJf6xYcq4_-33">
          <mxGeometry relative="1" as="geometry">
            <mxPoint x="697" y="1395.38" as="sourcePoint" />
            <mxPoint x="857" y="1395.38" as="targetPoint" />
          </mxGeometry>
        </mxCell>
        <mxCell id="O72GUm6GRssJf6xYcq4_-45" value="" style="endArrow=none;html=1;rounded=0;entryX=0;entryY=0.75;entryDx=0;entryDy=0;exitX=1;exitY=0.5;exitDx=0;exitDy=0;" edge="1" parent="1" source="O72GUm6GRssJf6xYcq4_-39" target="O72GUm6GRssJf6xYcq4_-33">
          <mxGeometry relative="1" as="geometry">
            <mxPoint x="904.5" y="1382.88" as="sourcePoint" />
            <mxPoint x="857" y="1395.38" as="targetPoint" />
            <Array as="points" />
          </mxGeometry>
        </mxCell>
        <mxCell id="O72GUm6GRssJf6xYcq4_-47" value="" style="endArrow=none;html=1;rounded=0;entryX=0.5;entryY=1;entryDx=0;entryDy=0;" edge="1" parent="1" source="O72GUm6GRssJf6xYcq4_-33" target="O72GUm6GRssJf6xYcq4_-40">
          <mxGeometry relative="1" as="geometry">
            <mxPoint x="697" y="1395.38" as="sourcePoint" />
            <mxPoint x="857" y="1395.38" as="targetPoint" />
          </mxGeometry>
        </mxCell>
        <mxCell id="O72GUm6GRssJf6xYcq4_-48" value="1 " style="text;html=1;strokeColor=none;fillColor=none;align=center;verticalAlign=middle;whiteSpace=wrap;rounded=0;" vertex="1" parent="1">
          <mxGeometry x="1254.5" y="1344.38" width="60" height="30" as="geometry" />
        </mxCell>
        <mxCell id="O72GUm6GRssJf6xYcq4_-49" value="M" style="text;html=1;strokeColor=none;fillColor=none;align=center;verticalAlign=middle;whiteSpace=wrap;rounded=0;" vertex="1" parent="1">
          <mxGeometry x="1043.5" y="1372.88" width="60" height="30" as="geometry" />
        </mxCell>
        <mxCell id="O72GUm6GRssJf6xYcq4_-50" value="M" style="text;html=1;strokeColor=none;fillColor=none;align=center;verticalAlign=middle;whiteSpace=wrap;rounded=0;" vertex="1" parent="1">
          <mxGeometry x="1132" y="1394.38" width="60" height="30" as="geometry" />
        </mxCell>
        <mxCell id="O72GUm6GRssJf6xYcq4_-51" value="1" style="text;html=1;strokeColor=none;fillColor=none;align=center;verticalAlign=middle;whiteSpace=wrap;rounded=0;" vertex="1" parent="1">
          <mxGeometry x="1204.5" y="1389.38" width="60" height="30" as="geometry" />
        </mxCell>
        <mxCell id="O72GUm6GRssJf6xYcq4_-53" value="estadoproducto" style="ellipse;whiteSpace=wrap;html=1;align=center;" vertex="1" parent="1">
          <mxGeometry x="465" y="571.38" width="100" height="40" as="geometry" />
        </mxCell>
        <mxCell id="O72GUm6GRssJf6xYcq4_-54" value="" style="endArrow=none;html=1;rounded=0;entryX=0.22;entryY=0.95;entryDx=0;entryDy=0;entryPerimeter=0;" edge="1" parent="1" source="V16zCYLXZQbHPPU0lnjb-9" target="O72GUm6GRssJf6xYcq4_-53">
          <mxGeometry width="50" height="50" relative="1" as="geometry">
            <mxPoint x="386" y="711.38" as="sourcePoint" />
            <mxPoint x="471" y="791.38" as="targetPoint" />
          </mxGeometry>
        </mxCell>
        <mxCell id="-gtityMwhi8R42TeJsOI-55" style="edgeStyle=orthogonalEdgeStyle;rounded=0;orthogonalLoop=1;jettySize=auto;html=1;entryX=1;entryY=0.5;entryDx=0;entryDy=0;endArrow=baseDash;endFill=0;" edge="1" parent="1" source="-gtityMwhi8R42TeJsOI-1" target="-gtityMwhi8R42TeJsOI-49">
          <mxGeometry relative="1" as="geometry" />
        </mxCell>
        <mxCell id="-gtityMwhi8R42TeJsOI-56" style="edgeStyle=orthogonalEdgeStyle;rounded=0;orthogonalLoop=1;jettySize=auto;html=1;entryX=0.5;entryY=1;entryDx=0;entryDy=0;endArrow=baseDash;endFill=0;" edge="1" parent="1" source="-gtityMwhi8R42TeJsOI-1" target="-gtityMwhi8R42TeJsOI-25">
          <mxGeometry relative="1" as="geometry">
            <Array as="points">
              <mxPoint x="434" y="232" />
              <mxPoint x="330" y="232" />
            </Array>
          </mxGeometry>
        </mxCell>
        <mxCell id="-gtityMwhi8R42TeJsOI-57" style="edgeStyle=orthogonalEdgeStyle;rounded=0;orthogonalLoop=1;jettySize=auto;html=1;endArrow=baseDash;endFill=0;entryX=0.5;entryY=1;entryDx=0;entryDy=0;" edge="1" parent="1" source="-gtityMwhi8R42TeJsOI-1" target="-gtityMwhi8R42TeJsOI-50">
          <mxGeometry relative="1" as="geometry">
            <Array as="points">
              <mxPoint x="460" y="229" />
              <mxPoint x="580" y="229" />
              <mxPoint x="580" y="207" />
            </Array>
          </mxGeometry>
        </mxCell>
        <mxCell id="-gtityMwhi8R42TeJsOI-1" value="EntervistaAgendamiento" style="whiteSpace=wrap;html=1;align=center;" vertex="1" parent="1">
          <mxGeometry x="354" y="251" width="160" height="40" as="geometry" />
        </mxCell>
        <mxCell id="-gtityMwhi8R42TeJsOI-51" style="edgeStyle=orthogonalEdgeStyle;rounded=0;orthogonalLoop=1;jettySize=auto;html=1;endArrow=baseDash;endFill=0;" edge="1" parent="1" source="-gtityMwhi8R42TeJsOI-9" target="-gtityMwhi8R42TeJsOI-1">
          <mxGeometry relative="1" as="geometry">
            <Array as="points">
              <mxPoint x="541" y="451.38" />
              <mxPoint x="541" y="271.38" />
            </Array>
          </mxGeometry>
        </mxCell>
        <mxCell id="-gtityMwhi8R42TeJsOI-9" value="Crea" style="shape=rhombus;perimeter=rhombusPerimeter;whiteSpace=wrap;html=1;align=center;" vertex="1" parent="1">
          <mxGeometry x="631" y="421.38" width="100" height="60" as="geometry" />
        </mxCell>
        <mxCell id="-gtityMwhi8R42TeJsOI-10" value="Postulaciones" style="whiteSpace=wrap;html=1;align=center;" vertex="1" parent="1">
          <mxGeometry x="796" y="431.38" width="100" height="40" as="geometry" />
        </mxCell>
        <mxCell id="-gtityMwhi8R42TeJsOI-11" value="Empleado" style="whiteSpace=wrap;html=1;align=center;" vertex="1" parent="1">
          <mxGeometry x="1242" y="511.38" width="100" height="40" as="geometry" />
        </mxCell>
        <mxCell id="-gtityMwhi8R42TeJsOI-17" value="&lt;u&gt;IdPostulacion&lt;/u&gt;" style="ellipse;whiteSpace=wrap;html=1;align=center;" vertex="1" parent="1">
          <mxGeometry x="676" y="341.38" width="100" height="40" as="geometry" />
        </mxCell>
        <mxCell id="-gtityMwhi8R42TeJsOI-25" value="FechaFinal" style="ellipse;whiteSpace=wrap;html=1;align=center;" vertex="1" parent="1">
          <mxGeometry x="280" y="172" width="100" height="40" as="geometry" />
        </mxCell>
        <mxCell id="gysOdd0s8VvAOIrW8YHU-8" value="" style="endArrow=none;html=1;rounded=0;entryX=0.25;entryY=1;entryDx=0;entryDy=0;exitX=1;exitY=0.5;exitDx=0;exitDy=0;" edge="1" parent="1" source="gysOdd0s8VvAOIrW8YHU-22" target="-gtityMwhi8R42TeJsOI-11">
          <mxGeometry relative="1" as="geometry">
            <mxPoint x="901" y="651.38" as="sourcePoint" />
            <mxPoint x="901" y="501.38" as="targetPoint" />
            <Array as="points">
              <mxPoint x="919" y="591.38" />
              <mxPoint x="1156" y="591.38" />
              <mxPoint x="1267" y="591.38" />
            </Array>
          </mxGeometry>
        </mxCell>
        <mxCell id="gysOdd0s8VvAOIrW8YHU-9" value="IdPersona" style="ellipse;whiteSpace=wrap;html=1;align=center;fontStyle=4;" vertex="1" parent="1">
          <mxGeometry x="868.5" y="821.38" width="100" height="40" as="geometry" />
        </mxCell>
        <mxCell id="-gtityMwhi8R42TeJsOI-53" style="edgeStyle=orthogonalEdgeStyle;rounded=0;orthogonalLoop=1;jettySize=auto;html=1;endArrow=baseDash;endFill=0;" edge="1" parent="1" source="-gtityMwhi8R42TeJsOI-31" target="-gtityMwhi8R42TeJsOI-52">
          <mxGeometry relative="1" as="geometry">
            <mxPoint x="1552" y="91" as="targetPoint" />
            <Array as="points">
              <mxPoint x="1555" y="111" />
              <mxPoint x="1555" y="111" />
            </Array>
          </mxGeometry>
        </mxCell>
        <mxCell id="-gtityMwhi8R42TeJsOI-54" style="edgeStyle=orthogonalEdgeStyle;rounded=0;orthogonalLoop=1;jettySize=auto;html=1;entryX=1;entryY=0.5;entryDx=0;entryDy=0;endArrow=baseDash;endFill=0;" edge="1" parent="1" source="-gtityMwhi8R42TeJsOI-31" target="-gtityMwhi8R42TeJsOI-45">
          <mxGeometry relative="1" as="geometry" />
        </mxCell>
        <mxCell id="-gtityMwhi8R42TeJsOI-31" value="BitÃ¡cora" style="whiteSpace=wrap;html=1;align=center;" vertex="1" parent="1">
          <mxGeometry x="1504.5" y="131" width="100" height="40" as="geometry" />
        </mxCell>
        <mxCell id="-gtityMwhi8R42TeJsOI-36" style="edgeStyle=orthogonalEdgeStyle;rounded=0;orthogonalLoop=1;jettySize=auto;html=1;endArrow=baseDash;endFill=0;exitX=0.5;exitY=1;exitDx=0;exitDy=0;" edge="1" parent="1" source="-gtityMwhi8R42TeJsOI-32" target="-gtityMwhi8R42TeJsOI-31">
          <mxGeometry relative="1" as="geometry">
            <Array as="points">
              <mxPoint x="1552.5" y="241" />
            </Array>
          </mxGeometry>
        </mxCell>
        <mxCell id="-gtityMwhi8R42TeJsOI-32" value="Gestiona" style="shape=rhombus;perimeter=rhombusPerimeter;whiteSpace=wrap;html=1;align=center;" vertex="1" parent="1">
          <mxGeometry x="1499.5" y="191" width="105" height="60" as="geometry" />
        </mxCell>
        <mxCell id="-gtityMwhi8R42TeJsOI-33" value="1:M" style="text;html=1;align=center;verticalAlign=middle;resizable=0;points=[];autosize=1;strokeColor=none;fillColor=none;" vertex="1" parent="1">
          <mxGeometry x="1472" y="196.38" width="40" height="30" as="geometry" />
        </mxCell>
        <mxCell id="-gtityMwhi8R42TeJsOI-39" value="&lt;u&gt;IdBitÃ¡cora&lt;/u&gt;" style="ellipse;whiteSpace=wrap;html=1;align=center;" vertex="1" parent="1">
          <mxGeometry x="1645.5" y="151.38" width="100" height="40" as="geometry" />
        </mxCell>
        <mxCell id="gysOdd0s8VvAOIrW8YHU-25" value="" style="group" connectable="0" vertex="1" parent="1">
          <mxGeometry x="878.5" y="653.38" width="80" height="60" as="geometry" />
        </mxCell>
        <mxCell id="gysOdd0s8VvAOIrW8YHU-22" value="" style="triangle;whiteSpace=wrap;html=1;rotation=-90;" vertex="1" parent="gysOdd0s8VvAOIrW8YHU-25">
          <mxGeometry x="10" y="-10" width="60" height="80" as="geometry" />
        </mxCell>
        <mxCell id="gysOdd0s8VvAOIrW8YHU-24" value="Es un" style="text;html=1;strokeColor=none;fillColor=none;align=center;verticalAlign=middle;whiteSpace=wrap;rounded=0;" vertex="1" parent="gysOdd0s8VvAOIrW8YHU-25">
          <mxGeometry x="10" y="20.25" width="60" height="30" as="geometry" />
        </mxCell>
        <mxCell id="-gtityMwhi8R42TeJsOI-45" value="FechaBitÃ¡cora" style="ellipse;whiteSpace=wrap;html=1;align=center;" vertex="1" parent="1">
          <mxGeometry x="1362" y="131" width="100" height="40" as="geometry" />
        </mxCell>
        <mxCell id="-gtityMwhi8R42TeJsOI-46" value="1" style="text;html=1;align=center;verticalAlign=middle;resizable=0;points=[];autosize=1;strokeColor=none;fillColor=none;" vertex="1" parent="1">
          <mxGeometry x="1321" y="486.38" width="30" height="30" as="geometry" />
        </mxCell>
        <mxCell id="-gtityMwhi8R42TeJsOI-47" value="M" style="text;html=1;align=center;verticalAlign=middle;resizable=0;points=[];autosize=1;strokeColor=none;fillColor=none;" vertex="1" parent="1">
          <mxGeometry x="1558" y="170" width="30" height="30" as="geometry" />
        </mxCell>
        <mxCell id="gysOdd0s8VvAOIrW8YHU-27" value="" style="endArrow=none;html=1;rounded=0;exitX=0.5;exitY=1;exitDx=0;exitDy=0;" edge="1" parent="1" source="-gtityMwhi8R42TeJsOI-9">
          <mxGeometry relative="1" as="geometry">
            <mxPoint x="761" y="261.38" as="sourcePoint" />
            <mxPoint x="1240" y="520" as="targetPoint" />
            <Array as="points">
              <mxPoint x="681" y="551.38" />
              <mxPoint x="726" y="551.38" />
              <mxPoint x="1010" y="551" />
              <mxPoint x="1010" y="520" />
            </Array>
          </mxGeometry>
        </mxCell>
        <mxCell id="-gtityMwhi8R42TeJsOI-49" value="HoraEntrevistaAgendamiento" style="ellipse;whiteSpace=wrap;html=1;align=center;" vertex="1" parent="1">
          <mxGeometry x="120" y="251" width="180" height="40" as="geometry" />
        </mxCell>
        <mxCell id="-gtityMwhi8R42TeJsOI-50" value="&lt;u&gt;IdEntrevistaAgendamiento&lt;/u&gt;" style="ellipse;whiteSpace=wrap;html=1;align=center;" vertex="1" parent="1">
          <mxGeometry x="494" y="167" width="170" height="40" as="geometry" />
        </mxCell>
        <mxCell id="gysOdd0s8VvAOIrW8YHU-28" value="" style="endArrow=none;html=1;rounded=0;exitX=0.456;exitY=0.983;exitDx=0;exitDy=0;exitPerimeter=0;" edge="1" parent="1" source="-gtityMwhi8R42TeJsOI-17">
          <mxGeometry relative="1" as="geometry">
            <mxPoint x="726" y="381.38" as="sourcePoint" />
            <mxPoint x="826" y="431.38" as="targetPoint" />
            <Array as="points">
              <mxPoint x="722" y="411.38" />
              <mxPoint x="826" y="411.38" />
            </Array>
          </mxGeometry>
        </mxCell>
        <mxCell id="-gtityMwhi8R42TeJsOI-52" value="ActividadBita" style="ellipse;whiteSpace=wrap;html=1;align=center;" vertex="1" parent="1">
          <mxGeometry x="1507" y="51.00000000000001" width="100" height="40" as="geometry" />
        </mxCell>
        <mxCell id="gysOdd0s8VvAOIrW8YHU-31" value="" style="endArrow=none;html=1;rounded=0;exitX=1;exitY=0.5;exitDx=0;exitDy=0;entryX=0;entryY=0.5;entryDx=0;entryDy=0;" edge="1" parent="1" source="-gtityMwhi8R42TeJsOI-9" target="-gtityMwhi8R42TeJsOI-10">
          <mxGeometry relative="1" as="geometry">
            <mxPoint x="761" y="621.38" as="sourcePoint" />
            <mxPoint x="921" y="621.38" as="targetPoint" />
          </mxGeometry>
        </mxCell>
        <mxCell id="tXJq_Wp9oXpG8VNzwd63-1" value="DÃ­a" style="ellipse;whiteSpace=wrap;html=1;align=center;" vertex="1" parent="1">
          <mxGeometry x="261" y="406.38" width="100" height="40" as="geometry" />
        </mxCell>
        <mxCell id="gysOdd0s8VvAOIrW8YHU-33" value="" style="endArrow=none;html=1;rounded=0;exitX=0.5;exitY=0;exitDx=0;exitDy=0;entryX=0.68;entryY=0.975;entryDx=0;entryDy=0;entryPerimeter=0;" edge="1" parent="1" source="V16zCYLXZQbHPPU0lnjb-33" target="tXJq_Wp9oXpG8VNzwd63-1">
          <mxGeometry relative="1" as="geometry">
            <mxPoint x="491" y="491.38" as="sourcePoint" />
            <mxPoint x="651" y="491.38" as="targetPoint" />
          </mxGeometry>
        </mxCell>
        <mxCell id="gysOdd0s8VvAOIrW8YHU-34" value="" style="endArrow=none;html=1;rounded=0;exitX=0.24;exitY=0.975;exitDx=0;exitDy=0;exitPerimeter=0;" edge="1" parent="1" source="gysOdd0s8VvAOIrW8YHU-32" target="V16zCYLXZQbHPPU0lnjb-33">
          <mxGeometry relative="1" as="geometry">
            <mxPoint x="491" y="491.38" as="sourcePoint" />
            <mxPoint x="651" y="491.38" as="targetPoint" />
          </mxGeometry>
        </mxCell>
        <mxCell id="gysOdd0s8VvAOIrW8YHU-35" value="AÃ±o" style="ellipse;whiteSpace=wrap;html=1;align=center;" vertex="1" parent="1">
          <mxGeometry x="441" y="468.38" width="100" height="40" as="geometry" />
        </mxCell>
        <mxCell id="gysOdd0s8VvAOIrW8YHU-36" value="" style="endArrow=none;html=1;rounded=0;exitX=1;exitY=0.5;exitDx=0;exitDy=0;entryX=0;entryY=0.5;entryDx=0;entryDy=0;" edge="1" parent="1" source="V16zCYLXZQbHPPU0lnjb-33" target="gysOdd0s8VvAOIrW8YHU-35">
          <mxGeometry relative="1" as="geometry">
            <mxPoint x="491" y="491.38" as="sourcePoint" />
            <mxPoint x="651" y="491.38" as="targetPoint" />
          </mxGeometry>
        </mxCell>
        <mxCell id="gysOdd0s8VvAOIrW8YHU-32" value="Mes" style="ellipse;whiteSpace=wrap;html=1;align=center;" vertex="1" parent="1">
          <mxGeometry x="391" y="416.38" width="100" height="40" as="geometry" />
        </mxCell>
        <mxCell id="gysOdd0s8VvAOIrW8YHU-39" value="DÃ­a" style="ellipse;whiteSpace=wrap;html=1;align=center;" vertex="1" parent="1">
          <mxGeometry x="1204.5" y="1455.38" width="100" height="40" as="geometry" />
        </mxCell>
        <mxCell id="gysOdd0s8VvAOIrW8YHU-40" value="Mes" style="ellipse;whiteSpace=wrap;html=1;align=center;" vertex="1" parent="1">
          <mxGeometry x="1309.5" y="1474.38" width="100" height="40" as="geometry" />
        </mxCell>
        <mxCell id="gysOdd0s8VvAOIrW8YHU-41" value="AÃ±o" style="ellipse;whiteSpace=wrap;html=1;align=center;" vertex="1" parent="1">
          <mxGeometry x="1424.5" y="1444.38" width="100" height="40" as="geometry" />
        </mxCell>
        <mxCell id="gysOdd0s8VvAOIrW8YHU-46" value="DÃ­a" style="ellipse;whiteSpace=wrap;html=1;align=center;" vertex="1" parent="1">
          <mxGeometry x="180" y="127" width="100" height="40" as="geometry" />
        </mxCell>
        <mxCell id="-gtityMwhi8R42TeJsOI-60" value="DescripciÃ³nOferta" style="ellipse;whiteSpace=wrap;html=1;align=center;" vertex="1" parent="1">
          <mxGeometry x="926" y="381.38" width="110" height="40" as="geometry" />
        </mxCell>
        <mxCell id="gysOdd0s8VvAOIrW8YHU-47" value="Mes" style="ellipse;whiteSpace=wrap;html=1;align=center;" vertex="1" parent="1">
          <mxGeometry x="290" y="104.5" width="100" height="45" as="geometry" />
        </mxCell>
        <mxCell id="gysOdd0s8VvAOIrW8YHU-48" value="AÃ±o" style="ellipse;whiteSpace=wrap;html=1;align=center;" vertex="1" parent="1">
          <mxGeometry x="390" y="132" width="100" height="40" as="geometry" />
        </mxCell>
        <mxCell id="-gtityMwhi8R42TeJsOI-61" value="Salario" style="ellipse;whiteSpace=wrap;html=1;align=center;" vertex="1" parent="1">
          <mxGeometry x="911" y="311.38" width="105" height="40" as="geometry" />
        </mxCell>
        <mxCell id="gysOdd0s8VvAOIrW8YHU-49" value="" style="endArrow=none;html=1;rounded=0;exitX=1;exitY=1;exitDx=0;exitDy=0;entryX=0;entryY=0;entryDx=0;entryDy=0;" edge="1" parent="1" source="gysOdd0s8VvAOIrW8YHU-46" target="-gtityMwhi8R42TeJsOI-25">
          <mxGeometry relative="1" as="geometry">
            <mxPoint x="320" y="122" as="sourcePoint" />
            <mxPoint x="480" y="122" as="targetPoint" />
          </mxGeometry>
        </mxCell>
        <mxCell id="gysOdd0s8VvAOIrW8YHU-50" value="" style="endArrow=none;html=1;rounded=0;exitX=0.5;exitY=1;exitDx=0;exitDy=0;entryX=0.624;entryY=-0.019;entryDx=0;entryDy=0;entryPerimeter=0;" edge="1" parent="1" source="gysOdd0s8VvAOIrW8YHU-47" target="-gtityMwhi8R42TeJsOI-25">
          <mxGeometry relative="1" as="geometry">
            <mxPoint x="320" y="122" as="sourcePoint" />
            <mxPoint x="360" y="172" as="targetPoint" />
          </mxGeometry>
        </mxCell>
        <mxCell id="gysOdd0s8VvAOIrW8YHU-51" value="" style="endArrow=none;html=1;rounded=0;entryX=0;entryY=1;entryDx=0;entryDy=0;" edge="1" parent="1" source="-gtityMwhi8R42TeJsOI-25" target="gysOdd0s8VvAOIrW8YHU-48">
          <mxGeometry relative="1" as="geometry">
            <mxPoint x="320" y="122" as="sourcePoint" />
            <mxPoint x="480" y="122" as="targetPoint" />
          </mxGeometry>
        </mxCell>
        <mxCell id="tXJq_Wp9oXpG8VNzwd63-7" value="perfil" style="ellipse;whiteSpace=wrap;html=1;align=center;" vertex="1" parent="1">
          <mxGeometry x="796" y="336.38" width="105" height="40" as="geometry" />
        </mxCell>
        <mxCell id="tXJq_Wp9oXpG8VNzwd63-8" value="Horario" style="ellipse;whiteSpace=wrap;html=1;align=center;" vertex="1" parent="1">
          <mxGeometry x="1016" y="330.38" width="105" height="40" as="geometry" />
        </mxCell>
        <mxCell id="tXJq_Wp9oXpG8VNzwd63-9" value="" style="endArrow=none;html=1;rounded=0;exitX=1;exitY=0;exitDx=0;exitDy=0;entryX=0;entryY=1;entryDx=0;entryDy=0;" edge="1" parent="1" source="-gtityMwhi8R42TeJsOI-60" target="tXJq_Wp9oXpG8VNzwd63-8">
          <mxGeometry width="50" height="50" relative="1" as="geometry">
            <mxPoint x="1019.6769958168306" y="387.1605162438119" as="sourcePoint" />
            <mxPoint x="1056" y="371.38" as="targetPoint" />
          </mxGeometry>
        </mxCell>
        <mxCell id="tXJq_Wp9oXpG8VNzwd63-10" value="" style="endArrow=none;html=1;rounded=0;exitX=0.44;exitY=0.005;exitDx=0;exitDy=0;entryX=0.5;entryY=1;entryDx=0;entryDy=0;exitPerimeter=0;" edge="1" parent="1" source="-gtityMwhi8R42TeJsOI-60" target="-gtityMwhi8R42TeJsOI-61">
          <mxGeometry width="50" height="50" relative="1" as="geometry">
            <mxPoint x="981" y="381.38" as="sourcePoint" />
            <mxPoint x="1056" y="430.79" as="targetPoint" />
          </mxGeometry>
        </mxCell>
        <mxCell id="fKWZzgyXg75nEt9x35-G-3" value="Dia" style="ellipse;whiteSpace=wrap;html=1;align=center;" vertex="1" parent="1">
          <mxGeometry x="1372" y="58.50000000000001" width="100" height="40" as="geometry" />
        </mxCell>
        <mxCell id="fKWZzgyXg75nEt9x35-G-4" value="Mes" style="ellipse;whiteSpace=wrap;html=1;align=center;" vertex="1" parent="1">
          <mxGeometry x="1262" y="76" width="100" height="40" as="geometry" />
        </mxCell>
        <mxCell id="fKWZzgyXg75nEt9x35-G-5" value="AÃ±o" style="ellipse;whiteSpace=wrap;html=1;align=center;" vertex="1" parent="1">
          <mxGeometry x="1242" y="131" width="100" height="40" as="geometry" />
        </mxCell>
        <mxCell id="fKWZzgyXg75nEt9x35-G-16" value="TipoArchivo" style="ellipse;whiteSpace=wrap;html=1;align=center;" vertex="1" parent="1">
          <mxGeometry x="1630" y="71.38" width="100" height="40" as="geometry" />
        </mxCell>
        <mxCell id="fKWZzgyXg75nEt9x35-G-19" value="" style="endArrow=none;html=1;rounded=0;entryX=0;entryY=0.5;entryDx=0;entryDy=0;exitX=1;exitY=0;exitDx=0;exitDy=0;" edge="1" parent="1" source="-gtityMwhi8R42TeJsOI-31" target="fKWZzgyXg75nEt9x35-G-16">
          <mxGeometry width="50" height="50" relative="1" as="geometry">
            <mxPoint x="1597" y="141" as="sourcePoint" />
            <mxPoint x="1647" y="91" as="targetPoint" />
          </mxGeometry>
        </mxCell>
        <mxCell id="ekpNGbLm5JelLbDxBOxf-1" value="Ordenpedido" style="rounded=0;whiteSpace=wrap;html=1;" vertex="1" parent="1">
          <mxGeometry x="1480" y="661.38" width="100" height="40" as="geometry" />
        </mxCell>
        <mxCell id="ekpNGbLm5JelLbDxBOxf-3" value="&lt;u&gt;IdPedido&lt;/u&gt;" style="ellipse;whiteSpace=wrap;html=1;" vertex="1" parent="1">
          <mxGeometry x="1620" y="604.13" width="90" height="40" as="geometry" />
        </mxCell>
        <mxCell id="ekpNGbLm5JelLbDxBOxf-4" value="fechaPedido" style="ellipse;whiteSpace=wrap;html=1;" vertex="1" parent="1">
          <mxGeometry x="1485" y="736.38" width="90" height="40" as="geometry" />
        </mxCell>
        <mxCell id="ekpNGbLm5JelLbDxBOxf-5" value="cantidadProductos" style="ellipse;whiteSpace=wrap;html=1;" vertex="1" parent="1">
          <mxGeometry x="1300" y="751.38" width="109.5" height="40" as="geometry" />
        </mxCell>
        <mxCell id="ekpNGbLm5JelLbDxBOxf-6" value="Cliente" style="rounded=0;whiteSpace=wrap;html=1;" vertex="1" parent="1">
          <mxGeometry x="1046" y="663.38" width="100" height="40" as="geometry" />
        </mxCell>
        <mxCell id="ekpNGbLm5JelLbDxBOxf-8" value="" style="endArrow=none;html=1;rounded=0;exitX=0;exitY=0.5;exitDx=0;exitDy=0;" edge="1" parent="1" source="ekpNGbLm5JelLbDxBOxf-6" target="gysOdd0s8VvAOIrW8YHU-22">
          <mxGeometry width="50" height="50" relative="1" as="geometry">
            <mxPoint x="808.5" y="1143.38" as="sourcePoint" />
            <mxPoint x="961" y="691.38" as="targetPoint" />
          </mxGeometry>
        </mxCell>
        <mxCell id="ekpNGbLm5JelLbDxBOxf-10" value="Realiza" style="shape=rhombus;perimeter=rhombusPerimeter;whiteSpace=wrap;html=1;align=center;" vertex="1" parent="1">
          <mxGeometry x="1247" y="651.38" width="120" height="60" as="geometry" />
        </mxCell>
        <mxCell id="ekpNGbLm5JelLbDxBOxf-11" value="" style="endArrow=none;html=1;rounded=0;entryX=1;entryY=0.5;entryDx=0;entryDy=0;exitX=0;exitY=0.5;exitDx=0;exitDy=0;" edge="1" parent="1" source="ekpNGbLm5JelLbDxBOxf-10" target="ekpNGbLm5JelLbDxBOxf-6">
          <mxGeometry width="50" height="50" relative="1" as="geometry">
            <mxPoint x="591" y="921.38" as="sourcePoint" />
            <mxPoint x="851" y="961.38" as="targetPoint" />
          </mxGeometry>
        </mxCell>
        <mxCell id="ekpNGbLm5JelLbDxBOxf-12" value="Pagos" style="whiteSpace=wrap;html=1;align=center;" vertex="1" parent="1">
          <mxGeometry x="1840.5" y="1017.69" width="110" height="43" as="geometry" />
        </mxCell>
        <mxCell id="ekpNGbLm5JelLbDxBOxf-13" value="tipoPago" style="ellipse;whiteSpace=wrap;html=1;" vertex="1" parent="1">
          <mxGeometry x="1800.5" y="1114.31" width="90" height="40" as="geometry" />
        </mxCell>
        <mxCell id="ekpNGbLm5JelLbDxBOxf-14" value="medioPago" style="ellipse;whiteSpace=wrap;html=1;" vertex="1" parent="1">
          <mxGeometry x="1979.5" y="960.69" width="90" height="40" as="geometry" />
        </mxCell>
        <mxCell id="ekpNGbLm5JelLbDxBOxf-15" value="valorPago" style="ellipse;whiteSpace=wrap;html=1;" vertex="1" parent="1">
          <mxGeometry x="1919.5" y="1119.31" width="90" height="40" as="geometry" />
        </mxCell>
        <mxCell id="ekpNGbLm5JelLbDxBOxf-16" value="&lt;u&gt;idPago&lt;/u&gt;" style="ellipse;whiteSpace=wrap;html=1;" vertex="1" parent="1">
          <mxGeometry x="1846" y="920.69" width="90" height="40" as="geometry" />
        </mxCell>
        <mxCell id="f7xggiVupmFxvOjggyPN-5" value="M" style="text;html=1;strokeColor=none;fillColor=none;align=center;verticalAlign=middle;whiteSpace=wrap;rounded=0;" vertex="1" parent="1">
          <mxGeometry x="1545.5" y="380.62" width="54" height="30" as="geometry" />
        </mxCell>
        <mxCell id="ekpNGbLm5JelLbDxBOxf-23" value="AÃ±o" style="ellipse;whiteSpace=wrap;html=1;align=center;" vertex="1" parent="1">
          <mxGeometry x="1593" y="791.38" width="100" height="40" as="geometry" />
        </mxCell>
        <mxCell id="ekpNGbLm5JelLbDxBOxf-22" value="Mes" style="ellipse;whiteSpace=wrap;html=1;align=center;" vertex="1" parent="1">
          <mxGeometry x="1499.12" y="826.38" width="100" height="40" as="geometry" />
        </mxCell>
        <mxCell id="ekpNGbLm5JelLbDxBOxf-24" value="DÃ­a" style="ellipse;whiteSpace=wrap;html=1;align=center;" vertex="1" parent="1">
          <mxGeometry x="1399.5" y="791.38" width="100" height="40" as="geometry" />
        </mxCell>
        <mxCell id="ekpNGbLm5JelLbDxBOxf-31" value="" style="endArrow=none;html=1;rounded=0;exitX=0.25;exitY=1;exitDx=0;exitDy=0;entryX=0.5;entryY=0;entryDx=0;entryDy=0;" edge="1" parent="1" source="ekpNGbLm5JelLbDxBOxf-1" target="ekpNGbLm5JelLbDxBOxf-5">
          <mxGeometry relative="1" as="geometry">
            <mxPoint x="1670.12" y="799.38" as="sourcePoint" />
            <mxPoint x="1615.12" y="859.3800000000001" as="targetPoint" />
          </mxGeometry>
        </mxCell>
        <mxCell id="ekpNGbLm5JelLbDxBOxf-33" value="" style="endArrow=none;html=1;rounded=0;exitX=0.5;exitY=1;exitDx=0;exitDy=0;entryX=0.5;entryY=0;entryDx=0;entryDy=0;" edge="1" parent="1" source="ekpNGbLm5JelLbDxBOxf-1" target="ekpNGbLm5JelLbDxBOxf-4">
          <mxGeometry relative="1" as="geometry">
            <mxPoint x="1546.12" y="661.38" as="sourcePoint" />
            <mxPoint x="1589.62" y="657.38" as="targetPoint" />
            <Array as="points" />
          </mxGeometry>
        </mxCell>
        <mxCell id="ekpNGbLm5JelLbDxBOxf-48" value="Venta" style="whiteSpace=wrap;html=1;align=center;" vertex="1" parent="1">
          <mxGeometry x="1891" y="473.38" width="110" height="43" as="geometry" />
        </mxCell>
        <mxCell id="ekpNGbLm5JelLbDxBOxf-52" value="Registra" style="shape=rhombus;perimeter=rhombusPerimeter;whiteSpace=wrap;html=1;align=center;" vertex="1" parent="1">
          <mxGeometry x="1690.75" y="463.38" width="120" height="60" as="geometry" />
        </mxCell>
        <mxCell id="bbKurqNK8aXATPd5CIck-5" style="edgeStyle=orthogonalEdgeStyle;rounded=0;orthogonalLoop=1;jettySize=auto;html=1;endArrow=baseDash;endFill=0;" edge="1" parent="1" source="bbKurqNK8aXATPd5CIck-2">
          <mxGeometry relative="1" as="geometry">
            <mxPoint x="1591" y="373.62" as="targetPoint" />
            <Array as="points">
              <mxPoint x="1591" y="380.62" />
            </Array>
          </mxGeometry>
        </mxCell>
        <mxCell id="bbKurqNK8aXATPd5CIck-2" value="Realiza" style="shape=rhombus;perimeter=rhombusPerimeter;whiteSpace=wrap;html=1;align=center;" vertex="1" parent="1">
          <mxGeometry x="1413" y="350.62" width="105" height="60" as="geometry" />
        </mxCell>
        <mxCell id="ekpNGbLm5JelLbDxBOxf-54" value="" style="endArrow=none;html=1;rounded=0;exitX=0.5;exitY=1;exitDx=0;exitDy=0;entryX=0;entryY=0;entryDx=0;entryDy=0;" edge="1" parent="1" source="ekpNGbLm5JelLbDxBOxf-16" target="ekpNGbLm5JelLbDxBOxf-12">
          <mxGeometry relative="1" as="geometry">
            <mxPoint x="2235" y="851.31" as="sourcePoint" />
            <mxPoint x="2395" y="851.31" as="targetPoint" />
          </mxGeometry>
        </mxCell>
        <mxCell id="bbKurqNK8aXATPd5CIck-3" value="Funciones" style="whiteSpace=wrap;html=1;align=center;direction=south;" vertex="1" parent="1">
          <mxGeometry x="1585.5" y="363.12" width="95.5" height="37.5" as="geometry" />
        </mxCell>
        <mxCell id="ekpNGbLm5JelLbDxBOxf-55" value="" style="endArrow=none;html=1;rounded=0;exitX=0.5;exitY=0;exitDx=0;exitDy=0;entryX=0.75;entryY=1;entryDx=0;entryDy=0;" edge="1" parent="1" source="ekpNGbLm5JelLbDxBOxf-15" target="ekpNGbLm5JelLbDxBOxf-12">
          <mxGeometry relative="1" as="geometry">
            <mxPoint x="2583" y="887.31" as="sourcePoint" />
            <mxPoint x="2443" y="931.31" as="targetPoint" />
          </mxGeometry>
        </mxCell>
        <mxCell id="bbKurqNK8aXATPd5CIck-6" value="1:M" style="text;html=1;align=center;verticalAlign=middle;resizable=0;points=[];autosize=1;strokeColor=none;fillColor=none;" vertex="1" parent="1">
          <mxGeometry x="1445.5" y="404.62" width="40" height="30" as="geometry" />
        </mxCell>
        <mxCell id="ekpNGbLm5JelLbDxBOxf-56" value="" style="endArrow=none;html=1;rounded=0;exitX=0;exitY=1;exitDx=0;exitDy=0;entryX=1;entryY=0;entryDx=0;entryDy=0;" edge="1" parent="1" source="ekpNGbLm5JelLbDxBOxf-14" target="ekpNGbLm5JelLbDxBOxf-12">
          <mxGeometry relative="1" as="geometry">
            <mxPoint x="1994.5" y="1005.69" as="sourcePoint" />
            <mxPoint x="1938.5" y="1039.31" as="targetPoint" />
          </mxGeometry>
        </mxCell>
        <mxCell id="ekpNGbLm5JelLbDxBOxf-58" value="" style="endArrow=none;html=1;rounded=0;exitX=0.5;exitY=1;exitDx=0;exitDy=0;entryX=0.5;entryY=0;entryDx=0;entryDy=0;" edge="1" parent="1" source="ekpNGbLm5JelLbDxBOxf-12" target="ekpNGbLm5JelLbDxBOxf-13">
          <mxGeometry relative="1" as="geometry">
            <mxPoint x="2593" y="932.56" as="sourcePoint" />
            <mxPoint x="1798.5" y="1119.31" as="targetPoint" />
          </mxGeometry>
        </mxCell>
        <mxCell id="ekpNGbLm5JelLbDxBOxf-67" value="total" style="ellipse;whiteSpace=wrap;html=1;" vertex="1" parent="1">
          <mxGeometry x="2034" y="499.38" width="91.63" height="42" as="geometry" />
        </mxCell>
        <mxCell id="ekpNGbLm5JelLbDxBOxf-70" value="&lt;u&gt;idVenta&lt;/u&gt;" style="ellipse;whiteSpace=wrap;html=1;" vertex="1" parent="1">
          <mxGeometry x="1821" y="541.38" width="90" height="40" as="geometry" />
        </mxCell>
        <mxCell id="bbKurqNK8aXATPd5CIck-7" value="&lt;u class=&quot;custom-cursor-default-hover&quot;&gt;idFunciones&lt;/u&gt;" style="ellipse;whiteSpace=wrap;html=1;align=center;" vertex="1" parent="1">
          <mxGeometry x="1690.75" y="404.62" width="100" height="40" as="geometry" />
        </mxCell>
        <mxCell id="ekpNGbLm5JelLbDxBOxf-73" value="" style="endArrow=none;html=1;rounded=0;exitX=1;exitY=0.5;exitDx=0;exitDy=0;entryX=0;entryY=0.5;entryDx=0;entryDy=0;" edge="1" parent="1" source="ekpNGbLm5JelLbDxBOxf-52" target="ekpNGbLm5JelLbDxBOxf-48">
          <mxGeometry relative="1" as="geometry">
            <mxPoint x="1581" y="591.38" as="sourcePoint" />
            <mxPoint x="1741" y="591.38" as="targetPoint" />
          </mxGeometry>
        </mxCell>
        <mxCell id="bbKurqNK8aXATPd5CIck-8" value="Fecha" style="ellipse;whiteSpace=wrap;html=1;align=center;" vertex="1" parent="1">
          <mxGeometry x="1583.25" y="295.62" width="100" height="40" as="geometry" />
        </mxCell>
        <mxCell id="bbKurqNK8aXATPd5CIck-10" value="Especificacion" style="ellipse;whiteSpace=wrap;html=1;align=center;" vertex="1" parent="1">
          <mxGeometry x="1566.87" y="421" width="106.63" height="40" as="geometry" />
        </mxCell>
        <mxCell id="bbKurqNK8aXATPd5CIck-11" value="DÃ­a" style="ellipse;whiteSpace=wrap;html=1;align=center;" vertex="1" parent="1">
          <mxGeometry x="1503.5" y="271.62" width="86" height="30" as="geometry" />
        </mxCell>
        <mxCell id="bbKurqNK8aXATPd5CIck-12" value="Mes" style="ellipse;whiteSpace=wrap;html=1;align=center;" vertex="1" parent="1">
          <mxGeometry x="1593" y="251" width="80.5" height="30" as="geometry" />
        </mxCell>
        <mxCell id="bbKurqNK8aXATPd5CIck-13" value="AÃ±o" style="ellipse;whiteSpace=wrap;html=1;align=center;" vertex="1" parent="1">
          <mxGeometry x="1499.12" y="317.62" width="80.5" height="35" as="geometry" />
        </mxCell>
        <mxCell id="ekpNGbLm5JelLbDxBOxf-87" value="" style="endArrow=none;html=1;rounded=0;exitX=0.5;exitY=0;exitDx=0;exitDy=0;entryX=0;entryY=0.5;entryDx=0;entryDy=0;" edge="1" parent="1" source="ekpNGbLm5JelLbDxBOxf-1" target="ekpNGbLm5JelLbDxBOxf-3">
          <mxGeometry relative="1" as="geometry">
            <mxPoint x="1400.87" y="514.38" as="sourcePoint" />
            <mxPoint x="1560.87" y="514.38" as="targetPoint" />
            <Array as="points" />
          </mxGeometry>
        </mxCell>
        <mxCell id="f7xggiVupmFxvOjggyPN-25" value="" style="endArrow=none;html=1;rounded=0;entryX=0;entryY=0.5;entryDx=0;entryDy=0;movable=1;resizable=1;rotatable=1;deletable=1;editable=1;locked=0;connectable=1;" edge="1" parent="1" target="gysOdd0s8VvAOIrW8YHU-22">
          <mxGeometry relative="1" as="geometry">
            <mxPoint x="919" y="740" as="sourcePoint" />
            <mxPoint x="950" y="411.38" as="targetPoint" />
          </mxGeometry>
        </mxCell>
        <mxCell id="bbKurqNK8aXATPd5CIck-14" value="Tiempo" style="ellipse;whiteSpace=wrap;html=1;align=center;" vertex="1" parent="1">
          <mxGeometry x="1700.5" y="333.62" width="100" height="40" as="geometry" />
        </mxCell>
        <mxCell id="ekpNGbLm5JelLbDxBOxf-91" value="subTotal" style="ellipse;whiteSpace=wrap;html=1;" vertex="1" parent="1">
          <mxGeometry x="2034" y="441.38" width="90" height="40" as="geometry" />
        </mxCell>
        <mxCell id="ekpNGbLm5JelLbDxBOxf-93" value="Estado" style="ellipse;whiteSpace=wrap;html=1;" vertex="1" parent="1">
          <mxGeometry x="1961" y="401.38" width="90" height="40" as="geometry" />
        </mxCell>
        <mxCell id="ekpNGbLm5JelLbDxBOxf-94" value="Descuento" style="ellipse;whiteSpace=wrap;html=1;" vertex="1" parent="1">
          <mxGeometry x="1825" y="391.38" width="90" height="40" as="geometry" />
        </mxCell>
        <mxCell id="ekpNGbLm5JelLbDxBOxf-103" value="" style="endArrow=none;html=1;rounded=0;exitX=0.75;exitY=1;exitDx=0;exitDy=0;entryX=0;entryY=0.5;entryDx=0;entryDy=0;" edge="1" parent="1" source="-gtityMwhi8R42TeJsOI-11" target="ekpNGbLm5JelLbDxBOxf-52">
          <mxGeometry relative="1" as="geometry">
            <mxPoint x="1641" y="511.38" as="sourcePoint" />
            <mxPoint x="1801" y="511.38" as="targetPoint" />
            <Array as="points">
              <mxPoint x="1317" y="591.38" />
              <mxPoint x="1620" y="591" />
              <mxPoint x="1620" y="493" />
            </Array>
          </mxGeometry>
        </mxCell>
        <mxCell id="Yq4WKW8P9NB7d0BZnTMx-3" value="Genera" style="shape=rhombus;perimeter=rhombusPerimeter;whiteSpace=wrap;html=1;align=center;" vertex="1" parent="1">
          <mxGeometry x="1750.25" y="791.38" width="120" height="60" as="geometry" />
        </mxCell>
        <mxCell id="Yq4WKW8P9NB7d0BZnTMx-6" value="Genera" style="shape=rhombus;perimeter=rhombusPerimeter;whiteSpace=wrap;html=1;align=center;" vertex="1" parent="1">
          <mxGeometry x="1722.75" y="651.38" width="120" height="60" as="geometry" />
        </mxCell>
        <mxCell id="Yq4WKW8P9NB7d0BZnTMx-9" value="" style="endArrow=none;html=1;rounded=0;entryX=0.5;entryY=1;entryDx=0;entryDy=0;exitX=1;exitY=0.5;exitDx=0;exitDy=0;" edge="1" parent="1" source="Yq4WKW8P9NB7d0BZnTMx-6" target="ekpNGbLm5JelLbDxBOxf-48">
          <mxGeometry relative="1" as="geometry">
            <mxPoint x="1741" y="621.38" as="sourcePoint" />
            <mxPoint x="1901" y="621.38" as="targetPoint" />
            <Array as="points">
              <mxPoint x="1946" y="681.38" />
            </Array>
          </mxGeometry>
        </mxCell>
        <mxCell id="Yq4WKW8P9NB7d0BZnTMx-10" value="" style="endArrow=none;html=1;rounded=0;exitX=0.5;exitY=0;exitDx=0;exitDy=0;entryX=0;entryY=1;entryDx=0;entryDy=0;" edge="1" parent="1" source="ekpNGbLm5JelLbDxBOxf-70" target="ekpNGbLm5JelLbDxBOxf-48">
          <mxGeometry relative="1" as="geometry">
            <mxPoint x="1791" y="621.38" as="sourcePoint" />
            <mxPoint x="1951" y="621.38" as="targetPoint" />
          </mxGeometry>
        </mxCell>
        <mxCell id="Yq4WKW8P9NB7d0BZnTMx-11" value="" style="endArrow=none;html=1;rounded=0;entryX=0;entryY=0;entryDx=0;entryDy=0;" edge="1" parent="1" source="ekpNGbLm5JelLbDxBOxf-48">
          <mxGeometry relative="1" as="geometry">
            <mxPoint x="1791" y="621.38" as="sourcePoint" />
            <mxPoint x="2023.1801948466054" y="547.2378643762689" as="targetPoint" />
          </mxGeometry>
        </mxCell>
        <mxCell id="Yq4WKW8P9NB7d0BZnTMx-12" value="" style="endArrow=none;html=1;rounded=0;entryX=1;entryY=0.5;entryDx=0;entryDy=0;exitX=0;exitY=0.5;exitDx=0;exitDy=0;" edge="1" parent="1" source="ekpNGbLm5JelLbDxBOxf-67" target="ekpNGbLm5JelLbDxBOxf-48">
          <mxGeometry relative="1" as="geometry">
            <mxPoint x="1791" y="621.38" as="sourcePoint" />
            <mxPoint x="1951" y="621.38" as="targetPoint" />
          </mxGeometry>
        </mxCell>
        <mxCell id="Yq4WKW8P9NB7d0BZnTMx-13" value="" style="endArrow=none;html=1;rounded=0;exitX=1;exitY=0;exitDx=0;exitDy=0;entryX=0;entryY=0.5;entryDx=0;entryDy=0;" edge="1" parent="1" source="ekpNGbLm5JelLbDxBOxf-48" target="ekpNGbLm5JelLbDxBOxf-91">
          <mxGeometry relative="1" as="geometry">
            <mxPoint x="1791" y="621.38" as="sourcePoint" />
            <mxPoint x="1951" y="621.38" as="targetPoint" />
          </mxGeometry>
        </mxCell>
        <mxCell id="Yq4WKW8P9NB7d0BZnTMx-14" value="" style="endArrow=none;html=1;rounded=0;entryX=0.5;entryY=1;entryDx=0;entryDy=0;" edge="1" parent="1" source="ekpNGbLm5JelLbDxBOxf-48" target="ekpNGbLm5JelLbDxBOxf-93">
          <mxGeometry relative="1" as="geometry">
            <mxPoint x="1791" y="621.38" as="sourcePoint" />
            <mxPoint x="1951" y="621.38" as="targetPoint" />
          </mxGeometry>
        </mxCell>
        <mxCell id="Yq4WKW8P9NB7d0BZnTMx-15" value="" style="endArrow=none;html=1;rounded=0;entryX=0.677;entryY=1.017;entryDx=0;entryDy=0;entryPerimeter=0;" edge="1" parent="1" source="ekpNGbLm5JelLbDxBOxf-48" target="ekpNGbLm5JelLbDxBOxf-94">
          <mxGeometry relative="1" as="geometry">
            <mxPoint x="1791" y="621.38" as="sourcePoint" />
            <mxPoint x="1951" y="621.38" as="targetPoint" />
          </mxGeometry>
        </mxCell>
        <mxCell id="Yq4WKW8P9NB7d0BZnTMx-16" value="" style="endArrow=none;html=1;rounded=0;entryX=1;entryY=1;entryDx=0;entryDy=0;exitX=0.25;exitY=0;exitDx=0;exitDy=0;" edge="1" parent="1" source="ekpNGbLm5JelLbDxBOxf-48">
          <mxGeometry relative="1" as="geometry">
            <mxPoint x="1791" y="621.38" as="sourcePoint" />
            <mxPoint x="1879.5698051533946" y="459.27213562373106" as="targetPoint" />
          </mxGeometry>
        </mxCell>
        <mxCell id="Yq4WKW8P9NB7d0BZnTMx-17" style="edgeStyle=orthogonalEdgeStyle;rounded=0;orthogonalLoop=1;jettySize=auto;html=1;exitX=0.5;exitY=1;exitDx=0;exitDy=0;" edge="1" parent="1" source="O72GUm6GRssJf6xYcq4_-51" target="O72GUm6GRssJf6xYcq4_-51">
          <mxGeometry relative="1" as="geometry" />
        </mxCell>
        <mxCell id="Yq4WKW8P9NB7d0BZnTMx-23" value="" style="endArrow=none;html=1;rounded=0;exitX=1;exitY=0.5;exitDx=0;exitDy=0;entryX=0;entryY=0.5;entryDx=0;entryDy=0;" edge="1" parent="1" source="O72GUm6GRssJf6xYcq4_-27" target="-k6Gn8lRK1XY-KWrh-RN-6">
          <mxGeometry relative="1" as="geometry">
            <mxPoint x="1499.5" y="1324.38" as="sourcePoint" />
            <mxPoint x="1499.5" y="1372.88" as="targetPoint" />
            <Array as="points" />
          </mxGeometry>
        </mxCell>
        <mxCell id="Yq4WKW8P9NB7d0BZnTMx-24" value="" style="endArrow=none;html=1;rounded=0;entryX=0.341;entryY=-0.015;entryDx=0;entryDy=0;entryPerimeter=0;exitX=1;exitY=1;exitDx=0;exitDy=0;" edge="1" parent="1" source="O72GUm6GRssJf6xYcq4_-35" target="O72GUm6GRssJf6xYcq4_-27">
          <mxGeometry relative="1" as="geometry">
            <mxPoint x="1079.5" y="1324.38" as="sourcePoint" />
            <mxPoint x="1239.5" y="1324.38" as="targetPoint" />
          </mxGeometry>
        </mxCell>
        <mxCell id="Yq4WKW8P9NB7d0BZnTMx-26" value="" style="endArrow=none;html=1;rounded=0;entryX=0.5;entryY=1;entryDx=0;entryDy=0;exitX=0.5;exitY=0;exitDx=0;exitDy=0;" edge="1" parent="1" source="O72GUm6GRssJf6xYcq4_-30" target="O72GUm6GRssJf6xYcq4_-27">
          <mxGeometry relative="1" as="geometry">
            <mxPoint x="1079.5" y="1324.38" as="sourcePoint" />
            <mxPoint x="1239.5" y="1324.38" as="targetPoint" />
          </mxGeometry>
        </mxCell>
        <mxCell id="Yq4WKW8P9NB7d0BZnTMx-27" value="" style="endArrow=none;html=1;rounded=0;entryX=0;entryY=0.5;entryDx=0;entryDy=0;" edge="1" parent="1" source="gysOdd0s8VvAOIrW8YHU-39" target="O72GUm6GRssJf6xYcq4_-30">
          <mxGeometry relative="1" as="geometry">
            <mxPoint x="1079.5" y="1324.38" as="sourcePoint" />
            <mxPoint x="1239.5" y="1324.38" as="targetPoint" />
          </mxGeometry>
        </mxCell>
        <mxCell id="Yq4WKW8P9NB7d0BZnTMx-28" value="" style="endArrow=none;html=1;rounded=0;entryX=0.5;entryY=1;entryDx=0;entryDy=0;" edge="1" parent="1" source="gysOdd0s8VvAOIrW8YHU-40" target="O72GUm6GRssJf6xYcq4_-30">
          <mxGeometry relative="1" as="geometry">
            <mxPoint x="1079.5" y="1324.38" as="sourcePoint" />
            <mxPoint x="1239.5" y="1324.38" as="targetPoint" />
          </mxGeometry>
        </mxCell>
        <mxCell id="Yq4WKW8P9NB7d0BZnTMx-29" value="" style="endArrow=none;html=1;rounded=0;entryX=0;entryY=0;entryDx=0;entryDy=0;" edge="1" parent="1" target="gysOdd0s8VvAOIrW8YHU-41">
          <mxGeometry relative="1" as="geometry">
            <mxPoint x="1409.5" y="1444.38" as="sourcePoint" />
            <mxPoint x="1239.5" y="1374.38" as="targetPoint" />
          </mxGeometry>
        </mxCell>
        <mxCell id="Yq4WKW8P9NB7d0BZnTMx-31" value="" style="endArrow=none;html=1;rounded=0;exitX=1;exitY=0.5;exitDx=0;exitDy=0;" edge="1" parent="1" source="O72GUm6GRssJf6xYcq4_-33" target="O72GUm6GRssJf6xYcq4_-29">
          <mxGeometry relative="1" as="geometry">
            <mxPoint x="1059.5" y="1394.38" as="sourcePoint" />
            <mxPoint x="1219.5" y="1394.38" as="targetPoint" />
          </mxGeometry>
        </mxCell>
        <mxCell id="Yq4WKW8P9NB7d0BZnTMx-33" style="edgeStyle=orthogonalEdgeStyle;rounded=0;orthogonalLoop=1;jettySize=auto;html=1;exitX=0.5;exitY=1;exitDx=0;exitDy=0;" edge="1" parent="1" source="O72GUm6GRssJf6xYcq4_-50" target="O72GUm6GRssJf6xYcq4_-50">
          <mxGeometry relative="1" as="geometry" />
        </mxCell>
        <mxCell id="Yq4WKW8P9NB7d0BZnTMx-40" value="1:M" style="text;html=1;strokeColor=none;fillColor=none;align=center;verticalAlign=middle;whiteSpace=wrap;rounded=0;" vertex="1" parent="1">
          <mxGeometry x="1690.25" y="1314.38" width="60" height="30" as="geometry" />
        </mxCell>
        <mxCell id="fZGGQZCIUDz1yGYkil1T-1" value="1:1" style="text;html=1;strokeColor=none;fillColor=none;align=center;verticalAlign=middle;whiteSpace=wrap;rounded=0;" vertex="1" parent="1">
          <mxGeometry x="1752.75" y="621.38" width="60" height="30" as="geometry" />
        </mxCell>
        <mxCell id="fZGGQZCIUDz1yGYkil1T-2" value="1" style="text;html=1;align=center;verticalAlign=middle;resizable=0;points=[];autosize=1;strokeColor=none;fillColor=none;" vertex="1" parent="1">
          <mxGeometry x="1780.25" y="505.38" width="30" height="30" as="geometry" />
        </mxCell>
        <mxCell id="fZGGQZCIUDz1yGYkil1T-3" value="1" style="text;html=1;align=center;verticalAlign=middle;resizable=0;points=[];autosize=1;strokeColor=none;fillColor=none;" vertex="1" parent="1">
          <mxGeometry x="1697.75" y="505.38" width="30" height="30" as="geometry" />
        </mxCell>
        <mxCell id="fZGGQZCIUDz1yGYkil1T-7" value="1:M" style="text;html=1;strokeColor=none;fillColor=none;align=center;verticalAlign=middle;whiteSpace=wrap;rounded=0;" vertex="1" parent="1">
          <mxGeometry x="1277" y="709.13" width="60" height="30" as="geometry" />
        </mxCell>
        <mxCell id="QCKIV_hk8l9w6p_mZ0Oq-1" value="M" style="text;html=1;strokeColor=none;fillColor=none;align=center;verticalAlign=middle;whiteSpace=wrap;rounded=0;" vertex="1" parent="1">
          <mxGeometry x="475" y="284" width="60" height="30" as="geometry" />
        </mxCell>
        <mxCell id="QCKIV_hk8l9w6p_mZ0Oq-2" value="M" style="text;html=1;strokeColor=none;fillColor=none;align=center;verticalAlign=middle;whiteSpace=wrap;rounded=0;" vertex="1" parent="1">
          <mxGeometry x="752.5" y="427.38" width="60" height="30" as="geometry" />
        </mxCell>
        <mxCell id="QCKIV_hk8l9w6p_mZ0Oq-4" value="1" style="text;html=1;strokeColor=none;fillColor=none;align=center;verticalAlign=middle;whiteSpace=wrap;rounded=0;" vertex="1" parent="1">
          <mxGeometry x="1309.5" y="1035" width="60" height="30" as="geometry" />
        </mxCell>
        <mxCell id="QCKIV_hk8l9w6p_mZ0Oq-6" value="1" style="text;html=1;strokeColor=none;fillColor=none;align=center;verticalAlign=middle;whiteSpace=wrap;rounded=0;" vertex="1" parent="1">
          <mxGeometry x="1321" y="511.38" width="60" height="30" as="geometry" />
        </mxCell>
        <mxCell id="QCKIV_hk8l9w6p_mZ0Oq-8" value="1" style="text;html=1;strokeColor=none;fillColor=none;align=center;verticalAlign=middle;whiteSpace=wrap;rounded=0;" vertex="1" parent="1">
          <mxGeometry x="1296" y="551.38" width="60" height="30" as="geometry" />
        </mxCell>
        <mxCell id="QCKIV_hk8l9w6p_mZ0Oq-9" value="1" style="text;html=1;strokeColor=none;fillColor=none;align=center;verticalAlign=middle;whiteSpace=wrap;rounded=0;" vertex="1" parent="1">
          <mxGeometry x="1840" y="495.13" width="60" height="30" as="geometry" />
        </mxCell>
        <mxCell id="QCKIV_hk8l9w6p_mZ0Oq-10" value="1" style="text;html=1;strokeColor=none;fillColor=none;align=center;verticalAlign=middle;whiteSpace=wrap;rounded=0;" vertex="1" parent="1">
          <mxGeometry x="1931" y="516.38" width="60" height="30" as="geometry" />
        </mxCell>
        <mxCell id="QCKIV_hk8l9w6p_mZ0Oq-13" value="1" style="text;html=1;strokeColor=none;fillColor=none;align=center;verticalAlign=middle;whiteSpace=wrap;rounded=0;" vertex="1" parent="1">
          <mxGeometry x="1399.5" y="1344.38" width="60" height="30" as="geometry" />
        </mxCell>
        <mxCell id="rbyk1kVrrK_8IuZ9gqHx-9" value="&lt;u&gt;IdCliente&lt;/u&gt;" style="ellipse;whiteSpace=wrap;html=1;align=center;" vertex="1" parent="1">
          <mxGeometry x="975.5" y="599.13" width="100" height="40" as="geometry" />
        </mxCell>
        <mxCell id="rbyk1kVrrK_8IuZ9gqHx-10" value="tipoCliente" style="ellipse;whiteSpace=wrap;html=1;align=center;" vertex="1" parent="1">
          <mxGeometry x="1138" y="601.38" width="100" height="40" as="geometry" />
        </mxCell>
        <mxCell id="rbyk1kVrrK_8IuZ9gqHx-11" value="" style="endArrow=none;html=1;rounded=0;entryX=0;entryY=1;entryDx=0;entryDy=0;" edge="1" parent="1" source="ekpNGbLm5JelLbDxBOxf-6" target="rbyk1kVrrK_8IuZ9gqHx-10">
          <mxGeometry relative="1" as="geometry">
            <mxPoint x="991" y="621.38" as="sourcePoint" />
            <mxPoint x="1151" y="621.38" as="targetPoint" />
          </mxGeometry>
        </mxCell>
        <mxCell id="rbyk1kVrrK_8IuZ9gqHx-12" value="" style="endArrow=none;html=1;rounded=0;entryX=0.196;entryY=0;entryDx=0;entryDy=0;exitX=0.585;exitY=1.027;exitDx=0;exitDy=0;exitPerimeter=0;entryPerimeter=0;" edge="1" parent="1" source="rbyk1kVrrK_8IuZ9gqHx-9" target="ekpNGbLm5JelLbDxBOxf-6">
          <mxGeometry relative="1" as="geometry">
            <mxPoint x="991" y="621.38" as="sourcePoint" />
            <mxPoint x="1151" y="621.38" as="targetPoint" />
          </mxGeometry>
        </mxCell>
        <mxCell id="7wb5X5A0uPSajtntDa3G-1" value="firma" style="shape=rhombus;perimeter=rhombusPerimeter;whiteSpace=wrap;html=1;align=center;" vertex="1" parent="1">
          <mxGeometry x="1110.5" y="176.38" width="105" height="60" as="geometry" />
        </mxCell>
        <mxCell id="7wb5X5A0uPSajtntDa3G-3" value="Contrato" style="whiteSpace=wrap;html=1;align=center;" vertex="1" parent="1">
          <mxGeometry x="950.5" y="186.38" width="100" height="40" as="geometry" />
        </mxCell>
        <mxCell id="7wb5X5A0uPSajtntDa3G-4" value="&lt;u&gt;idContrato&lt;/u&gt;" style="ellipse;whiteSpace=wrap;html=1;align=center;" vertex="1" parent="1">
          <mxGeometry x="950.5" y="251" width="100" height="40" as="geometry" />
        </mxCell>
        <mxCell id="7wb5X5A0uPSajtntDa3G-5" value="Tipo" style="ellipse;whiteSpace=wrap;html=1;align=center;" vertex="1" parent="1">
          <mxGeometry x="835.5" y="186.38" width="80" height="40" as="geometry" />
        </mxCell>
        <mxCell id="7wb5X5A0uPSajtntDa3G-6" value="FechaContrato" style="ellipse;whiteSpace=wrap;html=1;align=center;" vertex="1" parent="1">
          <mxGeometry x="950.5" y="116.38" width="100" height="40" as="geometry" />
        </mxCell>
        <mxCell id="7wb5X5A0uPSajtntDa3G-7" value="" style="endArrow=none;html=1;rounded=0;entryX=0;entryY=0.5;entryDx=0;entryDy=0;exitX=1;exitY=0.5;exitDx=0;exitDy=0;" edge="1" parent="1" source="7wb5X5A0uPSajtntDa3G-3" target="7wb5X5A0uPSajtntDa3G-1">
          <mxGeometry width="50" height="50" relative="1" as="geometry">
            <mxPoint x="1018" y="216.38" as="sourcePoint" />
            <mxPoint x="1068" y="166.38" as="targetPoint" />
          </mxGeometry>
        </mxCell>
        <mxCell id="7wb5X5A0uPSajtntDa3G-8" value="" style="endArrow=none;html=1;rounded=0;entryX=0.5;entryY=1;entryDx=0;entryDy=0;" edge="1" parent="1" source="7wb5X5A0uPSajtntDa3G-3" target="7wb5X5A0uPSajtntDa3G-6">
          <mxGeometry width="50" height="50" relative="1" as="geometry">
            <mxPoint x="1018" y="216.38" as="sourcePoint" />
            <mxPoint x="1068" y="166.38" as="targetPoint" />
          </mxGeometry>
        </mxCell>
        <mxCell id="7wb5X5A0uPSajtntDa3G-9" value="" style="endArrow=none;html=1;rounded=0;entryX=0.5;entryY=1;entryDx=0;entryDy=0;" edge="1" parent="1" source="7wb5X5A0uPSajtntDa3G-4" target="7wb5X5A0uPSajtntDa3G-3">
          <mxGeometry width="50" height="50" relative="1" as="geometry">
            <mxPoint x="1005.17" y="256.38" as="sourcePoint" />
            <mxPoint x="1005.17" y="226.38" as="targetPoint" />
          </mxGeometry>
        </mxCell>
        <mxCell id="7wb5X5A0uPSajtntDa3G-11" value="" style="endArrow=none;html=1;rounded=0;entryX=1;entryY=0.5;entryDx=0;entryDy=0;exitX=0;exitY=0.5;exitDx=0;exitDy=0;" edge="1" parent="1" source="7wb5X5A0uPSajtntDa3G-3" target="7wb5X5A0uPSajtntDa3G-5">
          <mxGeometry width="50" height="50" relative="1" as="geometry">
            <mxPoint x="1011" y="196.38" as="sourcePoint" />
            <mxPoint x="1011" y="166.38" as="targetPoint" />
          </mxGeometry>
        </mxCell>
        <mxCell id="7wb5X5A0uPSajtntDa3G-12" value="AÃ±o" style="ellipse;whiteSpace=wrap;html=1;align=center;" vertex="1" parent="1">
          <mxGeometry x="933" y="76.38" width="60" height="30" as="geometry" />
        </mxCell>
        <mxCell id="7wb5X5A0uPSajtntDa3G-13" value="Mes" style="ellipse;whiteSpace=wrap;html=1;align=center;" vertex="1" parent="1">
          <mxGeometry x="1005.5" y="76.38" width="70" height="30" as="geometry" />
        </mxCell>
        <mxCell id="7wb5X5A0uPSajtntDa3G-15" value="TÃ©rminoIndefinido&amp;nbsp;" style="ellipse;whiteSpace=wrap;html=1;align=center;" vertex="1" parent="1">
          <mxGeometry x="701" y="146.38" width="120" height="40" as="geometry" />
        </mxCell>
        <mxCell id="7wb5X5A0uPSajtntDa3G-14" value="Dia" style="ellipse;whiteSpace=wrap;html=1;align=center;" vertex="1" parent="1">
          <mxGeometry x="1070.5" y="121.38" width="67.5" height="30" as="geometry" />
        </mxCell>
        <mxCell id="7wb5X5A0uPSajtntDa3G-16" value="TÃ©rminoFijo" style="ellipse;whiteSpace=wrap;html=1;align=center;" vertex="1" parent="1">
          <mxGeometry x="711" y="222" width="100" height="40" as="geometry" />
        </mxCell>
        <mxCell id="QCKIV_hk8l9w6p_mZ0Oq-19" value="" style="endArrow=none;html=1;rounded=0;entryX=0;entryY=0.5;entryDx=0;entryDy=0;exitX=1;exitY=0;exitDx=0;exitDy=0;" edge="1" parent="1" source="-gtityMwhi8R42TeJsOI-10" target="-gtityMwhi8R42TeJsOI-60">
          <mxGeometry relative="1" as="geometry">
            <mxPoint x="861" y="571.38" as="sourcePoint" />
            <mxPoint x="1021" y="571.38" as="targetPoint" />
          </mxGeometry>
        </mxCell>
        <mxCell id="7wb5X5A0uPSajtntDa3G-17" value="ObraLabor" style="ellipse;whiteSpace=wrap;html=1;align=center;" vertex="1" parent="1">
          <mxGeometry x="825.5" y="251" width="100" height="40" as="geometry" />
        </mxCell>
        <mxCell id="7wb5X5A0uPSajtntDa3G-18" value="Temporalmente&amp;nbsp;" style="ellipse;whiteSpace=wrap;html=1;align=center;" vertex="1" parent="1">
          <mxGeometry x="825.5" y="106.38" width="100" height="40" as="geometry" />
        </mxCell>
        <mxCell id="QCKIV_hk8l9w6p_mZ0Oq-22" value="" style="endArrow=none;html=1;rounded=0;exitX=0.88;exitY=0.017;exitDx=0;exitDy=0;entryX=0;entryY=0.5;entryDx=0;entryDy=0;exitPerimeter=0;" edge="1" parent="1" source="-gtityMwhi8R42TeJsOI-11" target="-gtityMwhi8R42TeJsOI-32">
          <mxGeometry relative="1" as="geometry">
            <mxPoint x="1391" y="501.38" as="sourcePoint" />
            <mxPoint x="1551" y="501.38" as="targetPoint" />
            <Array as="points">
              <mxPoint x="1330" y="221.38" />
            </Array>
          </mxGeometry>
        </mxCell>
        <mxCell id="7wb5X5A0uPSajtntDa3G-19" value="" style="endArrow=none;html=1;rounded=0;entryX=1;entryY=0.5;entryDx=0;entryDy=0;exitX=0.606;exitY=-0.01;exitDx=0;exitDy=0;exitPerimeter=0;" edge="1" parent="1" source="-gtityMwhi8R42TeJsOI-11" target="7wb5X5A0uPSajtntDa3G-1">
          <mxGeometry width="50" height="50" relative="1" as="geometry">
            <mxPoint x="1241" y="291.38" as="sourcePoint" />
            <mxPoint x="1291" y="241.38" as="targetPoint" />
            <Array as="points">
              <mxPoint x="1301" y="206.38" />
            </Array>
          </mxGeometry>
        </mxCell>
        <mxCell id="7wb5X5A0uPSajtntDa3G-20" value="" style="endArrow=none;html=1;rounded=0;entryX=0.5;entryY=1;entryDx=0;entryDy=0;exitX=0.5;exitY=0;exitDx=0;exitDy=0;" edge="1" parent="1" source="7wb5X5A0uPSajtntDa3G-5" target="7wb5X5A0uPSajtntDa3G-18">
          <mxGeometry width="50" height="50" relative="1" as="geometry">
            <mxPoint x="948" y="276.38" as="sourcePoint" />
            <mxPoint x="998" y="226.38" as="targetPoint" />
          </mxGeometry>
        </mxCell>
        <mxCell id="7wb5X5A0uPSajtntDa3G-21" value="" style="endArrow=none;html=1;rounded=0;entryX=0.5;entryY=1;entryDx=0;entryDy=0;" edge="1" parent="1" source="7wb5X5A0uPSajtntDa3G-17" target="7wb5X5A0uPSajtntDa3G-5">
          <mxGeometry width="50" height="50" relative="1" as="geometry">
            <mxPoint x="886" y="196.38" as="sourcePoint" />
            <mxPoint x="886" y="156.38" as="targetPoint" />
          </mxGeometry>
        </mxCell>
        <mxCell id="7wb5X5A0uPSajtntDa3G-22" value="" style="endArrow=none;html=1;rounded=0;entryX=1;entryY=0.5;entryDx=0;entryDy=0;exitX=0;exitY=1;exitDx=0;exitDy=0;" edge="1" parent="1" source="7wb5X5A0uPSajtntDa3G-5" target="7wb5X5A0uPSajtntDa3G-16">
          <mxGeometry width="50" height="50" relative="1" as="geometry">
            <mxPoint x="896" y="206.38" as="sourcePoint" />
            <mxPoint x="896" y="166.38" as="targetPoint" />
          </mxGeometry>
        </mxCell>
        <mxCell id="7wb5X5A0uPSajtntDa3G-23" value="" style="endArrow=none;html=1;rounded=0;entryX=0.974;entryY=0.643;entryDx=0;entryDy=0;exitX=0;exitY=0;exitDx=0;exitDy=0;entryPerimeter=0;" edge="1" parent="1" source="7wb5X5A0uPSajtntDa3G-5" target="7wb5X5A0uPSajtntDa3G-15">
          <mxGeometry width="50" height="50" relative="1" as="geometry">
            <mxPoint x="906" y="216.38" as="sourcePoint" />
            <mxPoint x="906" y="176.38" as="targetPoint" />
          </mxGeometry>
        </mxCell>
        <mxCell id="7wb5X5A0uPSajtntDa3G-24" value="" style="endArrow=none;html=1;rounded=0;entryX=0.5;entryY=1;entryDx=0;entryDy=0;" edge="1" parent="1" source="7wb5X5A0uPSajtntDa3G-6" target="7wb5X5A0uPSajtntDa3G-12">
          <mxGeometry width="50" height="50" relative="1" as="geometry">
            <mxPoint x="886" y="196.38" as="sourcePoint" />
            <mxPoint x="886" y="156.38" as="targetPoint" />
          </mxGeometry>
        </mxCell>
        <mxCell id="7wb5X5A0uPSajtntDa3G-25" value="" style="endArrow=none;html=1;rounded=0;" edge="1" parent="1" source="7wb5X5A0uPSajtntDa3G-6" target="7wb5X5A0uPSajtntDa3G-13">
          <mxGeometry width="50" height="50" relative="1" as="geometry">
            <mxPoint x="975" y="132.38" as="sourcePoint" />
            <mxPoint x="1038" y="96.38" as="targetPoint" />
          </mxGeometry>
        </mxCell>
        <mxCell id="7wb5X5A0uPSajtntDa3G-26" value="" style="endArrow=none;html=1;rounded=0;entryX=0;entryY=0.5;entryDx=0;entryDy=0;exitX=1;exitY=0.5;exitDx=0;exitDy=0;" edge="1" parent="1" source="7wb5X5A0uPSajtntDa3G-6" target="7wb5X5A0uPSajtntDa3G-14">
          <mxGeometry width="50" height="50" relative="1" as="geometry">
            <mxPoint x="1026" y="127.38" as="sourcePoint" />
            <mxPoint x="1048" y="101.38" as="targetPoint" />
          </mxGeometry>
        </mxCell>
        <mxCell id="7wb5X5A0uPSajtntDa3G-27" value="1" style="text;html=1;align=center;verticalAlign=middle;resizable=0;points=[];autosize=1;strokeColor=none;fillColor=none;" vertex="1" parent="1">
          <mxGeometry x="1292" y="486.38" width="30" height="30" as="geometry" />
        </mxCell>
        <mxCell id="7wb5X5A0uPSajtntDa3G-28" value="1" style="text;html=1;align=center;verticalAlign=middle;resizable=0;points=[];autosize=1;strokeColor=none;fillColor=none;" vertex="1" parent="1">
          <mxGeometry x="1040.5" y="206.38" width="30" height="30" as="geometry" />
        </mxCell>
        <mxCell id="7wb5X5A0uPSajtntDa3G-29" value="1 : 1" style="text;html=1;align=center;verticalAlign=middle;resizable=0;points=[];autosize=1;strokeColor=none;fillColor=none;" vertex="1" parent="1">
          <mxGeometry x="1137" y="228.38" width="50" height="30" as="geometry" />
        </mxCell>
        <mxCell id="QCKIV_hk8l9w6p_mZ0Oq-35" value="" style="endArrow=none;html=1;rounded=0;entryX=0;entryY=0.5;entryDx=0;entryDy=0;exitX=1;exitY=0.5;exitDx=0;exitDy=0;" edge="1" parent="1" source="fKWZzgyXg75nEt9x35-G-5" target="-gtityMwhi8R42TeJsOI-45">
          <mxGeometry relative="1" as="geometry">
            <mxPoint x="1012" y="181" as="sourcePoint" />
            <mxPoint x="1172" y="181" as="targetPoint" />
          </mxGeometry>
        </mxCell>
        <mxCell id="QCKIV_hk8l9w6p_mZ0Oq-37" value="" style="endArrow=none;html=1;rounded=0;entryX=0;entryY=0;entryDx=0;entryDy=0;exitX=0.911;exitY=0.89;exitDx=0;exitDy=0;exitPerimeter=0;" edge="1" parent="1" source="fKWZzgyXg75nEt9x35-G-4" target="-gtityMwhi8R42TeJsOI-45">
          <mxGeometry relative="1" as="geometry">
            <mxPoint x="1012" y="181" as="sourcePoint" />
            <mxPoint x="1172" y="181" as="targetPoint" />
          </mxGeometry>
        </mxCell>
        <mxCell id="QCKIV_hk8l9w6p_mZ0Oq-38" value="" style="endArrow=none;html=1;rounded=0;entryX=0.462;entryY=1.011;entryDx=0;entryDy=0;entryPerimeter=0;exitX=0.544;exitY=-0.04;exitDx=0;exitDy=0;exitPerimeter=0;" edge="1" parent="1" source="-gtityMwhi8R42TeJsOI-45" target="fKWZzgyXg75nEt9x35-G-3">
          <mxGeometry relative="1" as="geometry">
            <mxPoint x="1012" y="181" as="sourcePoint" />
            <mxPoint x="1172" y="181" as="targetPoint" />
          </mxGeometry>
        </mxCell>
        <mxCell id="QCKIV_hk8l9w6p_mZ0Oq-41" value="" style="endArrow=none;html=1;rounded=0;exitX=1;exitY=1;exitDx=0;exitDy=0;" edge="1" parent="1" source="-gtityMwhi8R42TeJsOI-31" target="-gtityMwhi8R42TeJsOI-39">
          <mxGeometry relative="1" as="geometry">
            <mxPoint x="1352" y="351" as="sourcePoint" />
            <mxPoint x="1512" y="351" as="targetPoint" />
          </mxGeometry>
        </mxCell>
        <mxCell id="QCKIV_hk8l9w6p_mZ0Oq-42" value="" style="endArrow=none;html=1;rounded=0;entryX=0.042;entryY=0.693;entryDx=0;entryDy=0;entryPerimeter=0;" edge="1" parent="1" source="bbKurqNK8aXATPd5CIck-13" target="bbKurqNK8aXATPd5CIck-8">
          <mxGeometry relative="1" as="geometry">
            <mxPoint x="1221.5" y="281" as="sourcePoint" />
            <mxPoint x="1381.5" y="281" as="targetPoint" />
          </mxGeometry>
        </mxCell>
        <mxCell id="QCKIV_hk8l9w6p_mZ0Oq-43" value="" style="endArrow=none;html=1;rounded=0;entryX=0;entryY=0;entryDx=0;entryDy=0;exitX=1;exitY=1;exitDx=0;exitDy=0;" edge="1" parent="1" source="bbKurqNK8aXATPd5CIck-11" target="bbKurqNK8aXATPd5CIck-8">
          <mxGeometry relative="1" as="geometry">
            <mxPoint x="1221.5" y="281" as="sourcePoint" />
            <mxPoint x="1381.5" y="281" as="targetPoint" />
          </mxGeometry>
        </mxCell>
        <mxCell id="QCKIV_hk8l9w6p_mZ0Oq-44" value="" style="endArrow=none;html=1;rounded=0;entryX=0.5;entryY=0;entryDx=0;entryDy=0;" edge="1" parent="1" source="bbKurqNK8aXATPd5CIck-12" target="bbKurqNK8aXATPd5CIck-8">
          <mxGeometry relative="1" as="geometry">
            <mxPoint x="1221.5" y="281" as="sourcePoint" />
            <mxPoint x="1381.5" y="281" as="targetPoint" />
          </mxGeometry>
        </mxCell>
        <mxCell id="QCKIV_hk8l9w6p_mZ0Oq-45" value="" style="endArrow=none;html=1;rounded=0;entryX=0;entryY=0.5;entryDx=0;entryDy=0;exitX=0.5;exitY=1;exitDx=0;exitDy=0;" edge="1" parent="1" source="bbKurqNK8aXATPd5CIck-8" target="bbKurqNK8aXATPd5CIck-3">
          <mxGeometry relative="1" as="geometry">
            <mxPoint x="1221.5" y="281" as="sourcePoint" />
            <mxPoint x="1381.5" y="281" as="targetPoint" />
          </mxGeometry>
        </mxCell>
        <mxCell id="QCKIV_hk8l9w6p_mZ0Oq-46" value="" style="endArrow=none;html=1;rounded=0;entryX=1;entryY=0.75;entryDx=0;entryDy=0;exitX=0.406;exitY=0.041;exitDx=0;exitDy=0;exitPerimeter=0;" edge="1" parent="1" source="bbKurqNK8aXATPd5CIck-10" target="bbKurqNK8aXATPd5CIck-3">
          <mxGeometry relative="1" as="geometry">
            <mxPoint x="1221.5" y="281" as="sourcePoint" />
            <mxPoint x="1381.5" y="281" as="targetPoint" />
          </mxGeometry>
        </mxCell>
        <mxCell id="QCKIV_hk8l9w6p_mZ0Oq-47" value="" style="endArrow=none;html=1;rounded=0;exitX=1;exitY=0;exitDx=0;exitDy=0;" edge="1" parent="1" source="bbKurqNK8aXATPd5CIck-3" target="bbKurqNK8aXATPd5CIck-7">
          <mxGeometry relative="1" as="geometry">
            <mxPoint x="1221.5" y="281" as="sourcePoint" />
            <mxPoint x="1381.5" y="281" as="targetPoint" />
          </mxGeometry>
        </mxCell>
        <mxCell id="QCKIV_hk8l9w6p_mZ0Oq-48" value="" style="endArrow=none;html=1;rounded=0;entryX=0;entryY=1;entryDx=0;entryDy=0;" edge="1" parent="1" source="bbKurqNK8aXATPd5CIck-3" target="bbKurqNK8aXATPd5CIck-14">
          <mxGeometry relative="1" as="geometry">
            <mxPoint x="1221.5" y="281" as="sourcePoint" />
            <mxPoint x="1381.5" y="281" as="targetPoint" />
          </mxGeometry>
        </mxCell>
        <mxCell id="QCKIV_hk8l9w6p_mZ0Oq-49" value="Flujo" style="whiteSpace=wrap;html=1;align=center;" vertex="1" parent="1">
          <mxGeometry x="322" y="1122" width="100" height="40" as="geometry" />
        </mxCell>
        <mxCell id="QCKIV_hk8l9w6p_mZ0Oq-51" value="" style="endArrow=none;html=1;rounded=0;entryX=0;entryY=0.5;entryDx=0;entryDy=0;exitX=0.946;exitY=0.492;exitDx=0;exitDy=0;exitPerimeter=0;" edge="1" parent="1" source="QCKIV_hk8l9w6p_mZ0Oq-54" target="O72GUm6GRssJf6xYcq4_-33">
          <mxGeometry relative="1" as="geometry">
            <mxPoint x="780" y="1397.38" as="sourcePoint" />
            <mxPoint x="1000" y="1117.38" as="targetPoint" />
          </mxGeometry>
        </mxCell>
        <mxCell id="QCKIV_hk8l9w6p_mZ0Oq-52" value="" style="endArrow=none;html=1;rounded=0;entryX=0;entryY=0.5;entryDx=0;entryDy=0;" edge="1" parent="1" source="O72GUm6GRssJf6xYcq4_-33" target="O72GUm6GRssJf6xYcq4_-38">
          <mxGeometry relative="1" as="geometry">
            <mxPoint x="838.5" y="1094.38" as="sourcePoint" />
            <mxPoint x="998.5" y="1094.38" as="targetPoint" />
          </mxGeometry>
        </mxCell>
        <mxCell id="y6kb7PNkF1B_p_JoaX7Z-1" style="edgeStyle=orthogonalEdgeStyle;rounded=0;orthogonalLoop=1;jettySize=auto;html=1;entryX=0.75;entryY=0;entryDx=0;entryDy=0;endArrow=none;endFill=0;" edge="1" parent="1" source="QCKIV_hk8l9w6p_mZ0Oq-53" target="QCKIV_hk8l9w6p_mZ0Oq-49">
          <mxGeometry relative="1" as="geometry" />
        </mxCell>
        <mxCell id="QCKIV_hk8l9w6p_mZ0Oq-53" value="Tiene" style="shape=rhombus;perimeter=rhombusPerimeter;whiteSpace=wrap;html=1;align=center;" vertex="1" parent="1">
          <mxGeometry x="380" y="866.3800000000001" width="120" height="60" as="geometry" />
        </mxCell>
        <mxCell id="QCKIV_hk8l9w6p_mZ0Oq-54" value="Genera" style="shape=rhombus;perimeter=rhombusPerimeter;whiteSpace=wrap;html=1;align=center;" vertex="1" parent="1">
          <mxGeometry x="676" y="1345.38" width="120" height="60" as="geometry" />
        </mxCell>
        <mxCell id="QCKIV_hk8l9w6p_mZ0Oq-56" value="" style="endArrow=none;html=1;rounded=0;entryX=0;entryY=0.5;entryDx=0;entryDy=0;" edge="1" parent="1" target="QCKIV_hk8l9w6p_mZ0Oq-54">
          <mxGeometry relative="1" as="geometry">
            <mxPoint x="420" y="1150" as="sourcePoint" />
            <mxPoint x="680" y="1373.38" as="targetPoint" />
            <Array as="points">
              <mxPoint x="520" y="1150" />
              <mxPoint x="520" y="1375" />
            </Array>
          </mxGeometry>
        </mxCell>
        <mxCell id="QCKIV_hk8l9w6p_mZ0Oq-58" value="&lt;u&gt;IdFlujo&lt;/u&gt;" style="ellipse;whiteSpace=wrap;html=1;align=center;" vertex="1" parent="1">
          <mxGeometry x="232" y="1057" width="100" height="40" as="geometry" />
        </mxCell>
        <mxCell id="QCKIV_hk8l9w6p_mZ0Oq-60" value="" style="endArrow=none;html=1;rounded=0;exitX=1;exitY=1;exitDx=0;exitDy=0;" edge="1" parent="1" source="QCKIV_hk8l9w6p_mZ0Oq-58" target="QCKIV_hk8l9w6p_mZ0Oq-49">
          <mxGeometry relative="1" as="geometry">
            <mxPoint x="758" y="932.0000000000001" as="sourcePoint" />
            <mxPoint x="918" y="932.0000000000001" as="targetPoint" />
          </mxGeometry>
        </mxCell>
        <mxCell id="QCKIV_hk8l9w6p_mZ0Oq-69" value="Fecha" style="ellipse;whiteSpace=wrap;html=1;align=center;" vertex="1" parent="1">
          <mxGeometry x="211" y="1190" width="100" height="40" as="geometry" />
        </mxCell>
        <mxCell id="QCKIV_hk8l9w6p_mZ0Oq-70" value="Cantidad" style="ellipse;whiteSpace=wrap;html=1;align=center;" vertex="1" parent="1">
          <mxGeometry x="423" y="1062" width="100" height="40" as="geometry" />
        </mxCell>
        <mxCell id="QCKIV_hk8l9w6p_mZ0Oq-76" value="" style="endArrow=none;html=1;rounded=0;" edge="1" parent="1" source="QCKIV_hk8l9w6p_mZ0Oq-49" target="QCKIV_hk8l9w6p_mZ0Oq-70">
          <mxGeometry relative="1" as="geometry">
            <mxPoint x="488" y="1202" as="sourcePoint" />
            <mxPoint x="648" y="1202" as="targetPoint" />
          </mxGeometry>
        </mxCell>
        <mxCell id="kZWHV3AoY1blvt4ZEkJ2-1" value="M" style="text;html=1;strokeColor=none;fillColor=none;align=center;verticalAlign=middle;whiteSpace=wrap;rounded=0;" vertex="1" parent="1">
          <mxGeometry x="360" y="721.38" width="60" height="30" as="geometry" />
        </mxCell>
        <mxCell id="kZWHV3AoY1blvt4ZEkJ2-2" value="M" style="text;html=1;strokeColor=none;fillColor=none;align=center;verticalAlign=middle;whiteSpace=wrap;rounded=0;" vertex="1" parent="1">
          <mxGeometry x="351" y="1093.62" width="60" height="30" as="geometry" />
        </mxCell>
        <mxCell id="kZWHV3AoY1blvt4ZEkJ2-3" value="M" style="text;html=1;strokeColor=none;fillColor=none;align=center;verticalAlign=middle;whiteSpace=wrap;rounded=0;" vertex="1" parent="1">
          <mxGeometry x="420" y="1125.44" width="56" height="33.12" as="geometry" />
        </mxCell>
        <mxCell id="kZWHV3AoY1blvt4ZEkJ2-7" value="M" style="text;html=1;strokeColor=none;fillColor=none;align=center;verticalAlign=middle;whiteSpace=wrap;rounded=0;" vertex="1" parent="1">
          <mxGeometry x="907" y="1374.38" width="60" height="30" as="geometry" />
        </mxCell>
        <mxCell id="kZWHV3AoY1blvt4ZEkJ2-8" value="M:M" style="text;html=1;strokeColor=none;fillColor=none;align=center;verticalAlign=middle;whiteSpace=wrap;rounded=0;" vertex="1" parent="1">
          <mxGeometry x="360" y="900" width="60" height="30" as="geometry" />
        </mxCell>
        <mxCell id="kZWHV3AoY1blvt4ZEkJ2-9" value="M:M" style="text;html=1;strokeColor=none;fillColor=none;align=center;verticalAlign=middle;whiteSpace=wrap;rounded=0;" vertex="1" parent="1">
          <mxGeometry x="706" y="1312.88" width="60" height="30" as="geometry" />
        </mxCell>
        <mxCell id="kZWHV3AoY1blvt4ZEkJ2-10" value="" style="endArrow=none;html=1;rounded=0;exitX=0;exitY=0.5;exitDx=0;exitDy=0;" edge="1" parent="1" source="bbKurqNK8aXATPd5CIck-2">
          <mxGeometry relative="1" as="geometry">
            <mxPoint x="1390" y="391.38" as="sourcePoint" />
            <mxPoint x="1340" y="510" as="targetPoint" />
            <Array as="points">
              <mxPoint x="1380" y="381" />
              <mxPoint x="1380" y="510" />
            </Array>
          </mxGeometry>
        </mxCell>
        <mxCell id="sVfF8uLcjfbp8Trfj_Av-1" value="Fecha" style="ellipse;whiteSpace=wrap;html=1;" vertex="1" parent="1">
          <mxGeometry x="2001" y="546.38" width="90" height="40" as="geometry" />
        </mxCell>
        <mxCell id="sVfF8uLcjfbp8Trfj_Av-2" value="totalIva" style="ellipse;whiteSpace=wrap;html=1;" vertex="1" parent="1">
          <mxGeometry x="1790.75" y="441.38" width="90" height="40" as="geometry" />
        </mxCell>
        <mxCell id="sVfF8uLcjfbp8Trfj_Av-3" value="DÃ­a" style="ellipse;whiteSpace=wrap;html=1;" vertex="1" parent="1">
          <mxGeometry x="1951" y="609.13" width="90" height="40" as="geometry" />
        </mxCell>
        <mxCell id="sVfF8uLcjfbp8Trfj_Av-4" value="AÃ±o" style="ellipse;whiteSpace=wrap;html=1;" vertex="1" parent="1">
          <mxGeometry x="2031" y="639.13" width="90" height="40" as="geometry" />
        </mxCell>
        <mxCell id="sVfF8uLcjfbp8Trfj_Av-5" value="Mes" style="ellipse;whiteSpace=wrap;html=1;" vertex="1" parent="1">
          <mxGeometry x="2100" y="599.13" width="90" height="40" as="geometry" />
        </mxCell>
        <mxCell id="sVfF8uLcjfbp8Trfj_Av-6" value="Hora" style="ellipse;whiteSpace=wrap;html=1;" vertex="1" parent="1">
          <mxGeometry x="1900" y="363.12" width="90" height="40" as="geometry" />
        </mxCell>
        <mxCell id="sVfF8uLcjfbp8Trfj_Av-7" value="" style="endArrow=none;html=1;rounded=0;exitX=0.633;exitY=0.983;exitDx=0;exitDy=0;exitPerimeter=0;" edge="1" parent="1" source="sVfF8uLcjfbp8Trfj_Av-1" target="sVfF8uLcjfbp8Trfj_Av-4">
          <mxGeometry relative="1" as="geometry">
            <mxPoint x="2060" y="591.38" as="sourcePoint" />
            <mxPoint x="1970" y="411.38" as="targetPoint" />
          </mxGeometry>
        </mxCell>
        <mxCell id="sVfF8uLcjfbp8Trfj_Av-8" value="" style="endArrow=none;html=1;rounded=0;entryX=0.622;entryY=0.056;entryDx=0;entryDy=0;entryPerimeter=0;exitX=0.278;exitY=0.95;exitDx=0;exitDy=0;exitPerimeter=0;" edge="1" parent="1" source="sVfF8uLcjfbp8Trfj_Av-1" target="sVfF8uLcjfbp8Trfj_Av-3">
          <mxGeometry relative="1" as="geometry">
            <mxPoint x="1810" y="411.38" as="sourcePoint" />
            <mxPoint x="1970" y="411.38" as="targetPoint" />
          </mxGeometry>
        </mxCell>
        <mxCell id="sVfF8uLcjfbp8Trfj_Av-9" value="" style="endArrow=none;html=1;rounded=0;entryX=0;entryY=0;entryDx=0;entryDy=0;exitX=0.919;exitY=0.817;exitDx=0;exitDy=0;exitPerimeter=0;" edge="1" parent="1" source="sVfF8uLcjfbp8Trfj_Av-1" target="sVfF8uLcjfbp8Trfj_Av-5">
          <mxGeometry relative="1" as="geometry">
            <mxPoint x="1810" y="411.38" as="sourcePoint" />
            <mxPoint x="1970" y="411.38" as="targetPoint" />
          </mxGeometry>
        </mxCell>
        <mxCell id="sVfF8uLcjfbp8Trfj_Av-10" value="" style="endArrow=none;html=1;rounded=0;entryX=0.5;entryY=1;entryDx=0;entryDy=0;exitX=0.5;exitY=0;exitDx=0;exitDy=0;" edge="1" parent="1" source="ekpNGbLm5JelLbDxBOxf-48" target="sVfF8uLcjfbp8Trfj_Av-6">
          <mxGeometry relative="1" as="geometry">
            <mxPoint x="1810" y="411.38" as="sourcePoint" />
            <mxPoint x="1970" y="411.38" as="targetPoint" />
          </mxGeometry>
        </mxCell>
        <mxCell id="sVfF8uLcjfbp8Trfj_Av-13" value="DÃ­a" style="ellipse;whiteSpace=wrap;html=1;align=center;" vertex="1" parent="1">
          <mxGeometry x="1204.5" y="1455.38" width="100" height="40" as="geometry" />
        </mxCell>
        <mxCell id="sVfF8uLcjfbp8Trfj_Av-14" value="AÃ±o" style="ellipse;whiteSpace=wrap;html=1;align=center;" vertex="1" parent="1">
          <mxGeometry x="1424.5" y="1444.38" width="100" height="40" as="geometry" />
        </mxCell>
        <mxCell id="sVfF8uLcjfbp8Trfj_Av-17" value="Mes" style="ellipse;whiteSpace=wrap;html=1;align=center;" vertex="1" parent="1">
          <mxGeometry x="111" y="1230" width="100" height="40" as="geometry" />
        </mxCell>
        <mxCell id="sVfF8uLcjfbp8Trfj_Av-18" value="" style="endArrow=none;html=1;rounded=0;entryX=0;entryY=0.5;entryDx=0;entryDy=0;exitX=1;exitY=0.5;exitDx=0;exitDy=0;" edge="1" parent="1" source="sVfF8uLcjfbp8Trfj_Av-21" target="QCKIV_hk8l9w6p_mZ0Oq-69">
          <mxGeometry relative="1" as="geometry">
            <mxPoint x="202.5" y="1229.5" as="sourcePoint" />
            <mxPoint x="218.5" y="1214.12" as="targetPoint" />
          </mxGeometry>
        </mxCell>
        <mxCell id="sVfF8uLcjfbp8Trfj_Av-19" value="" style="endArrow=none;html=1;rounded=0;entryX=0.235;entryY=0.915;entryDx=0;entryDy=0;entryPerimeter=0;" edge="1" parent="1" source="sVfF8uLcjfbp8Trfj_Av-17" target="QCKIV_hk8l9w6p_mZ0Oq-69">
          <mxGeometry relative="1" as="geometry">
            <mxPoint x="-1.5" y="1094.5" as="sourcePoint" />
            <mxPoint x="278.5" y="1234.5" as="targetPoint" />
          </mxGeometry>
        </mxCell>
        <mxCell id="sVfF8uLcjfbp8Trfj_Av-20" value="" style="endArrow=none;html=1;rounded=0;entryX=0.5;entryY=0;entryDx=0;entryDy=0;" edge="1" parent="1" source="QCKIV_hk8l9w6p_mZ0Oq-69" target="sVfF8uLcjfbp8Trfj_Av-22">
          <mxGeometry relative="1" as="geometry">
            <mxPoint x="328.5" y="1214.5" as="sourcePoint" />
            <mxPoint x="358.5" y="1220.5" as="targetPoint" />
          </mxGeometry>
        </mxCell>
        <mxCell id="sVfF8uLcjfbp8Trfj_Av-21" value="DÃ­a" style="ellipse;whiteSpace=wrap;html=1;align=center;" vertex="1" parent="1">
          <mxGeometry x="80" y="1160" width="100" height="40" as="geometry" />
        </mxCell>
        <mxCell id="sVfF8uLcjfbp8Trfj_Av-22" value="AÃ±o" style="ellipse;whiteSpace=wrap;html=1;align=center;" vertex="1" parent="1">
          <mxGeometry x="212" y="1260" width="99" height="40" as="geometry" />
        </mxCell>
        <mxCell id="irwE3pklm9H5hEBFUmsN-1" value="&lt;font style=&quot;vertical-align: inherit;&quot;&gt;&lt;font style=&quot;vertical-align: inherit;&quot;&gt;&lt;font style=&quot;vertical-align: inherit;&quot;&gt;&lt;font style=&quot;vertical-align: inherit;&quot;&gt;&lt;font style=&quot;vertical-align: inherit;&quot;&gt;&lt;font style=&quot;vertical-align: inherit;&quot;&gt;ValorPromoc&lt;/font&gt;&lt;/font&gt;&lt;/font&gt;&lt;/font&gt;&lt;/font&gt;&lt;/font&gt;" style="ellipse;whiteSpace=wrap;html=1;align=center;" vertex="1" parent="1">
          <mxGeometry x="140" y="696.38" width="100" height="40" as="geometry" />
        </mxCell>
        <mxCell id="irwE3pklm9H5hEBFUmsN-2" value="" style="endArrow=none;html=1;rounded=0;exitX=0;exitY=1;exitDx=0;exitDy=0;" edge="1" parent="1" source="V16zCYLXZQbHPPU0lnjb-9" target="irwE3pklm9H5hEBFUmsN-1">
          <mxGeometry width="50" height="50" relative="1" as="geometry">
            <mxPoint x="333.5" y="708.38" as="sourcePoint" />
            <mxPoint x="527" y="634.38" as="targetPoint" />
          </mxGeometry>
        </mxCell>
        <mxCell id="VpAay5jb5lprDt5n6DXH-1" value="" style="endArrow=none;html=1;rounded=0;exitX=1;exitY=0.5;exitDx=0;exitDy=0;entryX=0;entryY=0.75;entryDx=0;entryDy=0;" edge="1" parent="1" source="V16zCYLXZQbHPPU0lnjb-13" target="-gtityMwhi8R42TeJsOI-11">
          <mxGeometry relative="1" as="geometry">
            <mxPoint x="600" y="680" as="sourcePoint" />
            <mxPoint x="1160" y="570" as="targetPoint" />
            <Array as="points">
              <mxPoint x="680" y="681" />
              <mxPoint x="680" y="570" />
              <mxPoint x="1090" y="570" />
              <mxPoint x="1090" y="541" />
            </Array>
          </mxGeometry>
        </mxCell>
        <mxCell id="VpAay5jb5lprDt5n6DXH-8" value="1" style="text;html=1;strokeColor=none;fillColor=none;align=center;verticalAlign=middle;whiteSpace=wrap;rounded=0;" vertex="1" parent="1">
          <mxGeometry x="1196" y="546.38" width="60" height="30" as="geometry" />
        </mxCell>
        <mxCell id="VpAay5jb5lprDt5n6DXH-9" value="1" style="text;html=1;strokeColor=none;fillColor=none;align=center;verticalAlign=middle;whiteSpace=wrap;rounded=0;" vertex="1" parent="1">
          <mxGeometry x="1192" y="516.38" width="60" height="30" as="geometry" />
        </mxCell>
        <mxCell id="VpAay5jb5lprDt5n6DXH-10" value="" style="endArrow=none;html=1;rounded=0;entryX=0.25;entryY=1;entryDx=0;entryDy=0;exitX=0.5;exitY=0;exitDx=0;exitDy=0;" edge="1" parent="1" source="QCKIV_hk8l9w6p_mZ0Oq-69" target="QCKIV_hk8l9w6p_mZ0Oq-49">
          <mxGeometry relative="1" as="geometry">
            <mxPoint x="338" y="1083.62" as="sourcePoint" />
            <mxPoint x="498" y="1083.62" as="targetPoint" />
          </mxGeometry>
        </mxCell>
        <mxCell id="VpAay5jb5lprDt5n6DXH-11" value="Novedad" style="ellipse;whiteSpace=wrap;html=1;align=center;" vertex="1" parent="1">
          <mxGeometry x="179" y="1110.5" width="100" height="40" as="geometry" />
        </mxCell>
        <mxCell id="VpAay5jb5lprDt5n6DXH-12" value="" style="endArrow=none;html=1;rounded=0;exitX=1;exitY=0.5;exitDx=0;exitDy=0;" edge="1" parent="1" source="VpAay5jb5lprDt5n6DXH-11">
          <mxGeometry relative="1" as="geometry">
            <mxPoint x="308" y="1223.62" as="sourcePoint" />
            <mxPoint x="318" y="1141.62" as="targetPoint" />
          </mxGeometry>
        </mxCell>
        <mxCell id="VpAay5jb5lprDt5n6DXH-13" value="tipoFlujo" style="ellipse;whiteSpace=wrap;html=1;align=center;" vertex="1" parent="1">
          <mxGeometry x="300" y="1220" width="100" height="40" as="geometry" />
        </mxCell>
        <mxCell id="VpAay5jb5lprDt5n6DXH-14" value="" style="endArrow=none;html=1;rounded=0;entryX=0.5;entryY=1;entryDx=0;entryDy=0;" edge="1" parent="1" source="VpAay5jb5lprDt5n6DXH-13" target="QCKIV_hk8l9w6p_mZ0Oq-49">
          <mxGeometry relative="1" as="geometry">
            <mxPoint x="308" y="1223.62" as="sourcePoint" />
            <mxPoint x="468" y="1223.62" as="targetPoint" />
          </mxGeometry>
        </mxCell>
        <mxCell id="VpAay5jb5lprDt5n6DXH-18" value="IdEmpleado" style="ellipse;whiteSpace=wrap;html=1;align=center;fontStyle=4;" vertex="1" parent="1">
          <mxGeometry x="1096" y="463.38" width="100" height="40" as="geometry" />
        </mxCell>
        <mxCell id="VpAay5jb5lprDt5n6DXH-19" value="" style="endArrow=none;html=1;rounded=0;exitX=1;exitY=1;exitDx=0;exitDy=0;entryX=0.18;entryY=-0.035;entryDx=0;entryDy=0;entryPerimeter=0;" edge="1" parent="1" source="VpAay5jb5lprDt5n6DXH-18" target="-gtityMwhi8R42TeJsOI-11">
          <mxGeometry relative="1" as="geometry">
            <mxPoint x="1080" y="670" as="sourcePoint" />
            <mxPoint x="1240" y="510" as="targetPoint" />
          </mxGeometry>
        </mxCell>
        <mxCell id="Z74dd6czaaX8H6W7B0ty-2" value="pedidoProveedor" style="whiteSpace=wrap;html=1;align=center;" vertex="1" parent="1">
          <mxGeometry x="743.5" y="980" width="100" height="40" as="geometry" />
        </mxCell>
        <mxCell id="Z74dd6czaaX8H6W7B0ty-3" value="cantidadPedido" style="ellipse;whiteSpace=wrap;html=1;align=center;" vertex="1" parent="1">
          <mxGeometry x="616" y="930" width="100" height="40" as="geometry" />
        </mxCell>
        <mxCell id="Z74dd6czaaX8H6W7B0ty-4" value="&lt;u&gt;idProveedor&lt;/u&gt;" style="ellipse;whiteSpace=wrap;html=1;align=center;" vertex="1" parent="1">
          <mxGeometry x="725.5" y="890" width="100" height="40" as="geometry" />
        </mxCell>
        <mxCell id="Z74dd6czaaX8H6W7B0ty-5" value="estado" style="ellipse;whiteSpace=wrap;html=1;align=center;" vertex="1" parent="1">
          <mxGeometry x="903.5" y="1030" width="100" height="40" as="geometry" />
        </mxCell>
        <mxCell id="Z74dd6czaaX8H6W7B0ty-6" value="precioPedido" style="ellipse;whiteSpace=wrap;html=1;align=center;" vertex="1" parent="1">
          <mxGeometry x="596" y="1050" width="100" height="40" as="geometry" />
        </mxCell>
        <mxCell id="Z74dd6czaaX8H6W7B0ty-7" value="fechaPedido" style="ellipse;whiteSpace=wrap;html=1;align=center;" vertex="1" parent="1">
          <mxGeometry x="858.5" y="911.38" width="100" height="40" as="geometry" />
        </mxCell>
        <mxCell id="Z74dd6czaaX8H6W7B0ty-8" value="nombreInsumo" style="ellipse;whiteSpace=wrap;html=1;align=center;" vertex="1" parent="1">
          <mxGeometry x="833" y="1080" width="100" height="40" as="geometry" />
        </mxCell>
        <mxCell id="Z74dd6czaaX8H6W7B0ty-9" value="fechaEntrega" style="ellipse;whiteSpace=wrap;html=1;align=center;" vertex="1" parent="1">
          <mxGeometry x="696" y="1080" width="100" height="40" as="geometry" />
        </mxCell>
        <mxCell id="Z74dd6czaaX8H6W7B0ty-10" value="" style="endArrow=none;html=1;rounded=0;exitX=0.5;exitY=0;exitDx=0;exitDy=0;entryX=0.5;entryY=1;entryDx=0;entryDy=0;" edge="1" parent="1" source="Z74dd6czaaX8H6W7B0ty-2" target="Z74dd6czaaX8H6W7B0ty-4">
          <mxGeometry relative="1" as="geometry">
            <mxPoint x="850" y="830" as="sourcePoint" />
            <mxPoint x="1010" y="830" as="targetPoint" />
          </mxGeometry>
        </mxCell>
        <mxCell id="Z74dd6czaaX8H6W7B0ty-11" value="" style="endArrow=none;html=1;rounded=0;entryX=1;entryY=1;entryDx=0;entryDy=0;exitX=0.25;exitY=0;exitDx=0;exitDy=0;" edge="1" parent="1" source="Z74dd6czaaX8H6W7B0ty-2" target="Z74dd6czaaX8H6W7B0ty-3">
          <mxGeometry relative="1" as="geometry">
            <mxPoint x="760" y="970" as="sourcePoint" />
            <mxPoint x="786" y="940" as="targetPoint" />
          </mxGeometry>
        </mxCell>
        <mxCell id="Z74dd6czaaX8H6W7B0ty-13" value="" style="endArrow=none;html=1;rounded=0;exitX=0.185;exitY=1.025;exitDx=0;exitDy=0;entryX=1;entryY=0;entryDx=0;entryDy=0;exitPerimeter=0;" edge="1" parent="1" source="Z74dd6czaaX8H6W7B0ty-2" target="Z74dd6czaaX8H6W7B0ty-6">
          <mxGeometry relative="1" as="geometry">
            <mxPoint x="824" y="1010" as="sourcePoint" />
            <mxPoint x="806" y="960" as="targetPoint" />
          </mxGeometry>
        </mxCell>
        <mxCell id="Z74dd6czaaX8H6W7B0ty-14" value="" style="endArrow=none;html=1;rounded=0;exitX=0.5;exitY=0;exitDx=0;exitDy=0;entryX=0.5;entryY=1;entryDx=0;entryDy=0;" edge="1" parent="1" source="Z74dd6czaaX8H6W7B0ty-9" target="Z74dd6czaaX8H6W7B0ty-2">
          <mxGeometry relative="1" as="geometry">
            <mxPoint x="834" y="1020" as="sourcePoint" />
            <mxPoint x="816" y="970" as="targetPoint" />
          </mxGeometry>
        </mxCell>
        <mxCell id="Z74dd6czaaX8H6W7B0ty-15" value="" style="endArrow=none;html=1;rounded=0;exitX=0.75;exitY=0;exitDx=0;exitDy=0;entryX=0;entryY=1;entryDx=0;entryDy=0;" edge="1" parent="1" source="Z74dd6czaaX8H6W7B0ty-2" target="Z74dd6czaaX8H6W7B0ty-7">
          <mxGeometry relative="1" as="geometry">
            <mxPoint x="844" y="1030" as="sourcePoint" />
            <mxPoint x="826" y="980" as="targetPoint" />
          </mxGeometry>
        </mxCell>
        <mxCell id="Z74dd6czaaX8H6W7B0ty-16" value="" style="endArrow=none;html=1;rounded=0;exitX=0;exitY=0;exitDx=0;exitDy=0;entryX=0.75;entryY=1;entryDx=0;entryDy=0;" edge="1" parent="1" source="Z74dd6czaaX8H6W7B0ty-8" target="Z74dd6czaaX8H6W7B0ty-2">
          <mxGeometry relative="1" as="geometry">
            <mxPoint x="854" y="1040" as="sourcePoint" />
            <mxPoint x="836" y="990" as="targetPoint" />
          </mxGeometry>
        </mxCell>
        <mxCell id="2ugIonxlT5SAUAORqxYD-2" value="Proveedor" style="whiteSpace=wrap;html=1;align=center;" vertex="1" parent="1">
          <mxGeometry x="1356" y="1020" width="100" height="40" as="geometry" />
        </mxCell>
        <mxCell id="2ugIonxlT5SAUAORqxYD-3" value="&lt;u&gt;idProveedor&lt;/u&gt;" style="ellipse;whiteSpace=wrap;html=1;align=center;" vertex="1" parent="1">
          <mxGeometry x="1257" y="920" width="100" height="40" as="geometry" />
        </mxCell>
        <mxCell id="2ugIonxlT5SAUAORqxYD-4" value="rut" style="ellipse;whiteSpace=wrap;html=1;align=center;" vertex="1" parent="1">
          <mxGeometry x="1530" y="1100" width="100" height="40" as="geometry" />
        </mxCell>
        <mxCell id="2ugIonxlT5SAUAORqxYD-6" value="nombreRepLegal" style="ellipse;whiteSpace=wrap;html=1;align=center;" vertex="1" parent="1">
          <mxGeometry x="1475" y="1150" width="100" height="40" as="geometry" />
        </mxCell>
        <mxCell id="2ugIonxlT5SAUAORqxYD-7" value="nitProveedor" style="ellipse;whiteSpace=wrap;html=1;align=center;" vertex="1" parent="1">
          <mxGeometry x="1404.5" y="911.38" width="100" height="40" as="geometry" />
        </mxCell>
        <mxCell id="2ugIonxlT5SAUAORqxYD-8" value="ciudad" style="ellipse;whiteSpace=wrap;html=1;align=center;" vertex="1" parent="1">
          <mxGeometry x="1201" y="1070" width="100" height="40" as="geometry" />
        </mxCell>
        <mxCell id="2ugIonxlT5SAUAORqxYD-9" value="estado" style="ellipse;whiteSpace=wrap;html=1;align=center;" vertex="1" parent="1">
          <mxGeometry x="1196" y="975" width="100" height="40" as="geometry" />
        </mxCell>
        <mxCell id="2ugIonxlT5SAUAORqxYD-10" value="telefono" style="ellipse;whiteSpace=wrap;html=1;align=center;" vertex="1" parent="1">
          <mxGeometry x="1256" y="1120" width="100" height="40" as="geometry" />
        </mxCell>
        <mxCell id="2ugIonxlT5SAUAORqxYD-11" value="direccion" style="ellipse;whiteSpace=wrap;html=1;align=center;" vertex="1" parent="1">
          <mxGeometry x="1362" y="1160" width="100" height="40" as="geometry" />
        </mxCell>
        <mxCell id="2ugIonxlT5SAUAORqxYD-12" value="razonSocial" style="ellipse;whiteSpace=wrap;html=1;align=center;" vertex="1" parent="1">
          <mxGeometry x="1518" y="940.0000000000001" width="100" height="40" as="geometry" />
        </mxCell>
        <mxCell id="2ugIonxlT5SAUAORqxYD-16" value="" style="endArrow=none;html=1;rounded=0;entryX=0;entryY=0.5;entryDx=0;entryDy=0;exitX=0.412;exitY=-0.001;exitDx=0;exitDy=0;exitPerimeter=0;" edge="1" parent="1" source="2ugIonxlT5SAUAORqxYD-2" target="2ugIonxlT5SAUAORqxYD-7">
          <mxGeometry relative="1" as="geometry">
            <mxPoint x="1410" y="1010" as="sourcePoint" />
            <mxPoint x="1510" y="956" as="targetPoint" />
          </mxGeometry>
        </mxCell>
        <mxCell id="2ugIonxlT5SAUAORqxYD-17" value="" style="endArrow=none;html=1;rounded=0;exitX=0.75;exitY=0;exitDx=0;exitDy=0;entryX=0;entryY=0.5;entryDx=0;entryDy=0;" edge="1" parent="1" source="2ugIonxlT5SAUAORqxYD-2" target="2ugIonxlT5SAUAORqxYD-12">
          <mxGeometry relative="1" as="geometry">
            <mxPoint x="1476" y="1040" as="sourcePoint" />
            <mxPoint x="1520" y="966" as="targetPoint" />
          </mxGeometry>
        </mxCell>
        <mxCell id="2ugIonxlT5SAUAORqxYD-18" value="" style="endArrow=none;html=1;rounded=0;exitX=1;exitY=0.75;exitDx=0;exitDy=0;entryX=0;entryY=0.5;entryDx=0;entryDy=0;" edge="1" parent="1" source="2ugIonxlT5SAUAORqxYD-2" target="2ugIonxlT5SAUAORqxYD-4">
          <mxGeometry relative="1" as="geometry">
            <mxPoint x="1486" y="1050" as="sourcePoint" />
            <mxPoint x="1530" y="976" as="targetPoint" />
          </mxGeometry>
        </mxCell>
        <mxCell id="2ugIonxlT5SAUAORqxYD-19" value="" style="endArrow=none;html=1;rounded=0;exitX=0.75;exitY=1;exitDx=0;exitDy=0;entryX=0.5;entryY=0;entryDx=0;entryDy=0;" edge="1" parent="1" source="2ugIonxlT5SAUAORqxYD-2" target="2ugIonxlT5SAUAORqxYD-11">
          <mxGeometry relative="1" as="geometry">
            <mxPoint x="1496" y="1060" as="sourcePoint" />
            <mxPoint x="1540" y="986" as="targetPoint" />
          </mxGeometry>
        </mxCell>
        <mxCell id="2ugIonxlT5SAUAORqxYD-20" value="" style="endArrow=none;html=1;rounded=0;exitX=0.5;exitY=1;exitDx=0;exitDy=0;entryX=1;entryY=0;entryDx=0;entryDy=0;" edge="1" parent="1" source="2ugIonxlT5SAUAORqxYD-2" target="2ugIonxlT5SAUAORqxYD-10">
          <mxGeometry relative="1" as="geometry">
            <mxPoint x="1506" y="1070" as="sourcePoint" />
            <mxPoint x="1550" y="996" as="targetPoint" />
          </mxGeometry>
        </mxCell>
        <mxCell id="2ugIonxlT5SAUAORqxYD-21" value="" style="endArrow=none;html=1;rounded=0;exitX=1;exitY=0.5;exitDx=0;exitDy=0;entryX=0;entryY=1;entryDx=0;entryDy=0;fontStyle=1" edge="1" parent="1" source="2ugIonxlT5SAUAORqxYD-8" target="2ugIonxlT5SAUAORqxYD-2">
          <mxGeometry relative="1" as="geometry">
            <mxPoint x="1516" y="1080" as="sourcePoint" />
            <mxPoint x="1560" y="1006" as="targetPoint" />
          </mxGeometry>
        </mxCell>
        <mxCell id="2ugIonxlT5SAUAORqxYD-23" value="" style="endArrow=none;html=1;rounded=0;exitX=0.25;exitY=0;exitDx=0;exitDy=0;entryX=1;entryY=1;entryDx=0;entryDy=0;" edge="1" parent="1" source="2ugIonxlT5SAUAORqxYD-2" target="2ugIonxlT5SAUAORqxYD-3">
          <mxGeometry relative="1" as="geometry">
            <mxPoint x="1536" y="1100" as="sourcePoint" />
            <mxPoint x="1580" y="1026" as="targetPoint" />
          </mxGeometry>
        </mxCell>
        <mxCell id="2ugIonxlT5SAUAORqxYD-24" value="" style="endArrow=none;html=1;rounded=0;exitX=0;exitY=0;exitDx=0;exitDy=0;entryX=1;entryY=0.5;entryDx=0;entryDy=0;" edge="1" parent="1" source="2ugIonxlT5SAUAORqxYD-2" target="2ugIonxlT5SAUAORqxYD-9">
          <mxGeometry relative="1" as="geometry">
            <mxPoint x="1546" y="1110" as="sourcePoint" />
            <mxPoint x="1590" y="1036" as="targetPoint" />
          </mxGeometry>
        </mxCell>
        <mxCell id="2ugIonxlT5SAUAORqxYD-26" value="" style="endArrow=none;html=1;rounded=0;exitX=0;exitY=0.5;exitDx=0;exitDy=0;entryX=1;entryY=1;entryDx=0;entryDy=0;" edge="1" parent="1" source="Z74dd6czaaX8H6W7B0ty-5" target="Z74dd6czaaX8H6W7B0ty-2">
          <mxGeometry relative="1" as="geometry">
            <mxPoint x="1556" y="1120" as="sourcePoint" />
            <mxPoint x="1600" y="1046" as="targetPoint" />
          </mxGeometry>
        </mxCell>
        <mxCell id="2ugIonxlT5SAUAORqxYD-27" value="Realiza" style="shape=rhombus;perimeter=rhombusPerimeter;whiteSpace=wrap;html=1;align=center;" vertex="1" parent="1">
          <mxGeometry x="581" y="776.38" width="120" height="60" as="geometry" />
        </mxCell>
        <mxCell id="2ugIonxlT5SAUAORqxYD-28" value="" style="endArrow=none;html=1;rounded=0;exitX=0.5;exitY=0;exitDx=0;exitDy=0;entryX=1;entryY=0.25;entryDx=0;entryDy=0;" edge="1" parent="1" source="2ugIonxlT5SAUAORqxYD-27" target="VpAay5jb5lprDt5n6DXH-8">
          <mxGeometry relative="1" as="geometry">
            <mxPoint x="1010" y="860" as="sourcePoint" />
            <mxPoint x="1170" y="860" as="targetPoint" />
            <Array as="points">
              <mxPoint x="640" y="700" />
              <mxPoint x="780" y="700" />
              <mxPoint x="780" y="580" />
              <mxPoint x="1100" y="580" />
              <mxPoint x="1256" y="580" />
            </Array>
          </mxGeometry>
        </mxCell>
        <mxCell id="2ugIonxlT5SAUAORqxYD-29" value="1" style="text;html=1;strokeColor=none;fillColor=none;align=center;verticalAlign=middle;whiteSpace=wrap;rounded=0;" vertex="1" parent="1">
          <mxGeometry x="1247" y="555.13" width="60" height="30" as="geometry" />
        </mxCell>
        <mxCell id="2ugIonxlT5SAUAORqxYD-30" value="" style="endArrow=none;html=1;rounded=0;exitX=0;exitY=0.5;exitDx=0;exitDy=0;entryX=0;entryY=0.5;entryDx=0;entryDy=0;startArrow=none;startFill=0;" edge="1" parent="1" source="2ugIonxlT5SAUAORqxYD-27" target="Z74dd6czaaX8H6W7B0ty-2">
          <mxGeometry relative="1" as="geometry">
            <mxPoint x="1010" y="860" as="sourcePoint" />
            <mxPoint x="1170" y="860" as="targetPoint" />
            <Array as="points">
              <mxPoint x="560" y="806" />
              <mxPoint x="560" y="880" />
              <mxPoint x="560" y="1000" />
            </Array>
          </mxGeometry>
        </mxCell>
        <mxCell id="2ugIonxlT5SAUAORqxYD-31" value="1:M" style="text;html=1;strokeColor=none;fillColor=none;align=center;verticalAlign=middle;whiteSpace=wrap;rounded=0;" vertex="1" parent="1">
          <mxGeometry x="606" y="831.38" width="60" height="30" as="geometry" />
        </mxCell>
        <mxCell id="2ugIonxlT5SAUAORqxYD-32" value="&lt;font style=&quot;vertical-align: inherit;&quot;&gt;&lt;font style=&quot;vertical-align: inherit;&quot;&gt;&lt;font style=&quot;vertical-align: inherit;&quot;&gt;&lt;font style=&quot;vertical-align: inherit;&quot;&gt;M&lt;/font&gt;&lt;/font&gt;&lt;/font&gt;&lt;/font&gt;" style="text;html=1;strokeColor=none;fillColor=none;align=center;verticalAlign=middle;whiteSpace=wrap;rounded=0;" vertex="1" parent="1">
          <mxGeometry x="701" y="975" width="60" height="30" as="geometry" />
        </mxCell>
        <mxCell id="2ugIonxlT5SAUAORqxYD-33" value="" style="endArrow=none;html=1;rounded=0;exitX=1;exitY=1;exitDx=0;exitDy=0;entryX=0;entryY=0;entryDx=0;entryDy=0;" edge="1" parent="1" source="2ugIonxlT5SAUAORqxYD-2" target="2ugIonxlT5SAUAORqxYD-6">
          <mxGeometry relative="1" as="geometry">
            <mxPoint x="1466" y="1060" as="sourcePoint" />
            <mxPoint x="1540" y="1130" as="targetPoint" />
          </mxGeometry>
        </mxCell>
        <mxCell id="2ugIonxlT5SAUAORqxYD-34" value="" style="endArrow=none;html=1;rounded=0;exitX=1;exitY=0.5;exitDx=0;exitDy=0;entryX=0;entryY=0.5;entryDx=0;entryDy=0;" edge="1" parent="1" source="Z74dd6czaaX8H6W7B0ty-2" target="2ugIonxlT5SAUAORqxYD-2">
          <mxGeometry relative="1" as="geometry">
            <mxPoint x="1311" y="1100" as="sourcePoint" />
            <mxPoint x="1366" y="1070" as="targetPoint" />
            <Array as="points">
              <mxPoint x="1180" y="1000" />
              <mxPoint x="1180" y="1040" />
            </Array>
          </mxGeometry>
        </mxCell>
        <mxCell id="2ugIonxlT5SAUAORqxYD-35" value="M" style="text;html=1;strokeColor=none;fillColor=none;align=center;verticalAlign=middle;whiteSpace=wrap;rounded=0;" vertex="1" parent="1">
          <mxGeometry x="835.5" y="975" width="60" height="30" as="geometry" />
        </mxCell>
        <mxCell id="-k6Gn8lRK1XY-KWrh-RN-1" value="" style="endArrow=none;html=1;rounded=0;entryX=0.75;entryY=1;entryDx=0;entryDy=0;exitX=0.5;exitY=0;exitDx=0;exitDy=0;" edge="1" parent="1" source="QCKIV_hk8l9w6p_mZ0Oq-53" target="V16zCYLXZQbHPPU0lnjb-9">
          <mxGeometry relative="1" as="geometry">
            <mxPoint x="451" y="1050" as="sourcePoint" />
            <mxPoint x="460" y="1361" as="targetPoint" />
            <Array as="points">
              <mxPoint x="440" y="800" />
              <mxPoint x="376" y="760" />
            </Array>
          </mxGeometry>
        </mxCell>
        <mxCell id="-k6Gn8lRK1XY-KWrh-RN-2" value="" style="endArrow=none;html=1;rounded=0;entryX=1;entryY=0.5;entryDx=0;entryDy=0;exitX=1;exitY=0;exitDx=0;exitDy=0;" edge="1" parent="1" source="O72GUm6GRssJf6xYcq4_-33" target="2ugIonxlT5SAUAORqxYD-2">
          <mxGeometry relative="1" as="geometry">
            <mxPoint x="1040" y="1030" as="sourcePoint" />
            <mxPoint x="1200" y="1030" as="targetPoint" />
            <Array as="points">
              <mxPoint x="1230" y="1250" />
              <mxPoint x="1660" y="1250" />
              <mxPoint x="1660" y="1040" />
            </Array>
          </mxGeometry>
        </mxCell>
        <mxCell id="-k6Gn8lRK1XY-KWrh-RN-3" value="M" style="text;html=1;strokeColor=none;fillColor=none;align=center;verticalAlign=middle;whiteSpace=wrap;rounded=0;" vertex="1" parent="1">
          <mxGeometry x="1452" y="1035" width="60" height="30" as="geometry" />
        </mxCell>
        <mxCell id="-k6Gn8lRK1XY-KWrh-RN-4" value="M" style="text;html=1;strokeColor=none;fillColor=none;align=center;verticalAlign=middle;whiteSpace=wrap;rounded=0;" vertex="1" parent="1">
          <mxGeometry x="1025.5" y="1329.38" width="60" height="30" as="geometry" />
        </mxCell>
        <mxCell id="-k6Gn8lRK1XY-KWrh-RN-6" value="Genera" style="shape=rhombus;perimeter=rhombusPerimeter;whiteSpace=wrap;html=1;align=center;" vertex="1" parent="1">
          <mxGeometry x="1660.25" y="1342.88" width="120" height="60" as="geometry" />
        </mxCell>
        <mxCell id="-k6Gn8lRK1XY-KWrh-RN-8" value="" style="endArrow=none;html=1;rounded=0;exitX=1;exitY=0.5;exitDx=0;exitDy=0;entryX=1;entryY=0.5;entryDx=0;entryDy=0;" edge="1" parent="1" source="-k6Gn8lRK1XY-KWrh-RN-6" target="ekpNGbLm5JelLbDxBOxf-12">
          <mxGeometry relative="1" as="geometry">
            <mxPoint x="1730" y="1090" as="sourcePoint" />
            <mxPoint x="1890" y="1090" as="targetPoint" />
            <Array as="points">
              <mxPoint x="2040" y="1373" />
              <mxPoint x="2040" y="1220" />
              <mxPoint x="2040" y="1039" />
            </Array>
          </mxGeometry>
        </mxCell>
        <mxCell id="-k6Gn8lRK1XY-KWrh-RN-9" value="" style="endArrow=none;html=1;rounded=0;exitX=1;exitY=0.5;exitDx=0;exitDy=0;entryX=0;entryY=0.5;entryDx=0;entryDy=0;" edge="1" parent="1" source="ekpNGbLm5JelLbDxBOxf-10" target="ekpNGbLm5JelLbDxBOxf-1">
          <mxGeometry relative="1" as="geometry">
            <mxPoint x="1750" y="880" as="sourcePoint" />
            <mxPoint x="1910" y="880" as="targetPoint" />
          </mxGeometry>
        </mxCell>
        <mxCell id="-k6Gn8lRK1XY-KWrh-RN-10" value="" style="endArrow=none;html=1;rounded=0;exitX=1;exitY=0.5;exitDx=0;exitDy=0;entryX=0;entryY=0.5;entryDx=0;entryDy=0;" edge="1" parent="1" source="ekpNGbLm5JelLbDxBOxf-1" target="Yq4WKW8P9NB7d0BZnTMx-6">
          <mxGeometry relative="1" as="geometry">
            <mxPoint x="1750" y="880" as="sourcePoint" />
            <mxPoint x="1910" y="880" as="targetPoint" />
          </mxGeometry>
        </mxCell>
        <mxCell id="-k6Gn8lRK1XY-KWrh-RN-11" value="" style="endArrow=none;html=1;rounded=0;exitX=1;exitY=1;exitDx=0;exitDy=0;entryX=0.5;entryY=0;entryDx=0;entryDy=0;" edge="1" parent="1" source="ekpNGbLm5JelLbDxBOxf-1" target="Yq4WKW8P9NB7d0BZnTMx-3">
          <mxGeometry relative="1" as="geometry">
            <mxPoint x="1750" y="880" as="sourcePoint" />
            <mxPoint x="1910" y="880" as="targetPoint" />
            <Array as="points">
              <mxPoint x="1580" y="720" />
              <mxPoint x="1810" y="720" />
            </Array>
          </mxGeometry>
        </mxCell>
        <mxCell id="-k6Gn8lRK1XY-KWrh-RN-12" value="" style="endArrow=none;html=1;rounded=0;exitX=0.5;exitY=1;exitDx=0;exitDy=0;entryX=0;entryY=0.5;entryDx=0;entryDy=0;" edge="1" parent="1" source="Yq4WKW8P9NB7d0BZnTMx-3" target="ekpNGbLm5JelLbDxBOxf-12">
          <mxGeometry relative="1" as="geometry">
            <mxPoint x="1750" y="880" as="sourcePoint" />
            <mxPoint x="1910" y="880" as="targetPoint" />
            <Array as="points">
              <mxPoint x="1810" y="1040" />
            </Array>
          </mxGeometry>
        </mxCell>
        <mxCell id="-k6Gn8lRK1XY-KWrh-RN-13" value="M" style="text;html=1;strokeColor=none;fillColor=none;align=center;verticalAlign=middle;whiteSpace=wrap;rounded=0;" vertex="1" parent="1">
          <mxGeometry x="1790.75" y="1010" width="60" height="30" as="geometry" />
        </mxCell>
        <mxCell id="-k6Gn8lRK1XY-KWrh-RN-14" value="" style="endArrow=none;html=1;rounded=0;exitX=0;exitY=1;exitDx=0;exitDy=0;entryX=0.5;entryY=0;entryDx=0;entryDy=0;" edge="1" parent="1" source="ekpNGbLm5JelLbDxBOxf-4" target="ekpNGbLm5JelLbDxBOxf-24">
          <mxGeometry relative="1" as="geometry">
            <mxPoint x="1640" y="990" as="sourcePoint" />
            <mxPoint x="1800" y="990" as="targetPoint" />
          </mxGeometry>
        </mxCell>
        <mxCell id="-k6Gn8lRK1XY-KWrh-RN-15" value="" style="endArrow=none;html=1;rounded=0;exitX=0.5;exitY=1;exitDx=0;exitDy=0;entryX=0.5;entryY=0;entryDx=0;entryDy=0;" edge="1" parent="1" source="ekpNGbLm5JelLbDxBOxf-4" target="ekpNGbLm5JelLbDxBOxf-22">
          <mxGeometry relative="1" as="geometry">
            <mxPoint x="1640" y="990" as="sourcePoint" />
            <mxPoint x="1800" y="990" as="targetPoint" />
          </mxGeometry>
        </mxCell>
        <mxCell id="-k6Gn8lRK1XY-KWrh-RN-16" value="" style="endArrow=none;html=1;rounded=0;exitX=1;exitY=1;exitDx=0;exitDy=0;entryX=0.5;entryY=0;entryDx=0;entryDy=0;" edge="1" parent="1" source="ekpNGbLm5JelLbDxBOxf-4" target="ekpNGbLm5JelLbDxBOxf-23">
          <mxGeometry relative="1" as="geometry">
            <mxPoint x="1640" y="990" as="sourcePoint" />
            <mxPoint x="1800" y="990" as="targetPoint" />
          </mxGeometry>
        </mxCell>
        <mxCell id="-k6Gn8lRK1XY-KWrh-RN-17" value="M" style="text;html=1;strokeColor=none;fillColor=none;align=center;verticalAlign=middle;whiteSpace=wrap;rounded=0;" vertex="1" parent="1">
          <mxGeometry x="1439.12" y="654.13" width="60" height="30" as="geometry" />
        </mxCell>
        <mxCell id="-k6Gn8lRK1XY-KWrh-RN-18" value="1" style="text;html=1;strokeColor=none;fillColor=none;align=center;verticalAlign=middle;whiteSpace=wrap;rounded=0;" vertex="1" parent="1">
          <mxGeometry x="1132" y="684.13" width="60" height="30" as="geometry" />
        </mxCell>
        <mxCell id="-k6Gn8lRK1XY-KWrh-RN-19" value="1" style="text;html=1;strokeColor=none;fillColor=none;align=center;verticalAlign=middle;whiteSpace=wrap;rounded=0;" vertex="1" parent="1">
          <mxGeometry x="1558" y="696.38" width="60" height="30" as="geometry" />
        </mxCell>
        <mxCell id="-k6Gn8lRK1XY-KWrh-RN-20" value="M" style="text;html=1;strokeColor=none;fillColor=none;align=center;verticalAlign=middle;whiteSpace=wrap;rounded=0;" vertex="1" parent="1">
          <mxGeometry x="1941" y="1010" width="60" height="30" as="geometry" />
        </mxCell>
        <mxCell id="WOxA6yg11WhP7R7-6uM8-1" value="Usuario" style="whiteSpace=wrap;html=1;align=center;" vertex="1" parent="1">
          <mxGeometry x="868.5" y="741.38" width="100" height="40" as="geometry" />
        </mxCell>
        <mxCell id="WOxA6yg11WhP7R7-6uM8-4" style="rounded=0;orthogonalLoop=1;jettySize=auto;html=1;endArrow=baseDash;endFill=0;" edge="1" parent="1" source="WOxA6yg11WhP7R7-6uM8-5" target="WOxA6yg11WhP7R7-6uM8-12">
          <mxGeometry relative="1" as="geometry">
            <mxPoint x="1247.5" y="778.88" as="targetPoint" />
          </mxGeometry>
        </mxCell>
        <mxCell id="WOxA6yg11WhP7R7-6uM8-5" value="NombreUsuario" style="ellipse;whiteSpace=wrap;html=1;align=center;" vertex="1" parent="1">
          <mxGeometry x="1247.5" y="801.38" width="100" height="40" as="geometry" />
        </mxCell>
        <mxCell id="WOxA6yg11WhP7R7-6uM8-6" value="tipoIdentificacion" style="ellipse;whiteSpace=wrap;html=1;align=center;" vertex="1" parent="1">
          <mxGeometry x="1057" y="831.38" width="100" height="40" as="geometry" />
        </mxCell>
        <mxCell id="WOxA6yg11WhP7R7-6uM8-7" value="&lt;u&gt;noDocIdent&lt;/u&gt;" style="ellipse;whiteSpace=wrap;html=1;align=center;" vertex="1" parent="1">
          <mxGeometry x="976" y="783.88" width="110" height="45" as="geometry" />
        </mxCell>
        <mxCell id="WOxA6yg11WhP7R7-6uM8-8" value="apellidoUsuario" style="ellipse;whiteSpace=wrap;html=1;align=center;" vertex="1" parent="1">
          <mxGeometry x="1162" y="836.38" width="100" height="40" as="geometry" />
        </mxCell>
        <mxCell id="WOxA6yg11WhP7R7-6uM8-9" value="" style="endArrow=none;html=1;rounded=0;entryX=0;entryY=0.5;entryDx=0;entryDy=0;exitX=1;exitY=0.5;exitDx=0;exitDy=0;" edge="1" parent="1" source="WOxA6yg11WhP7R7-6uM8-7">
          <mxGeometry relative="1" as="geometry">
            <mxPoint x="1027.5" y="698.88" as="sourcePoint" />
            <mxPoint x="1147.5" y="778.88" as="targetPoint" />
          </mxGeometry>
        </mxCell>
        <mxCell id="WOxA6yg11WhP7R7-6uM8-10" value="" style="endArrow=none;html=1;rounded=0;entryX=0.135;entryY=0.988;entryDx=0;entryDy=0;exitX=0.5;exitY=0;exitDx=0;exitDy=0;entryPerimeter=0;" edge="1" parent="1" source="WOxA6yg11WhP7R7-6uM8-6" target="WOxA6yg11WhP7R7-6uM8-12">
          <mxGeometry relative="1" as="geometry">
            <mxPoint x="1097.5" y="838.88" as="sourcePoint" />
            <mxPoint x="1147.5" y="798.88" as="targetPoint" />
          </mxGeometry>
        </mxCell>
        <mxCell id="WOxA6yg11WhP7R7-6uM8-11" value="" style="endArrow=none;html=1;rounded=0;exitX=0.442;exitY=1.036;exitDx=0;exitDy=0;exitPerimeter=0;" edge="1" parent="1" source="WOxA6yg11WhP7R7-6uM8-12" target="WOxA6yg11WhP7R7-6uM8-8">
          <mxGeometry relative="1" as="geometry">
            <mxPoint x="1247.5" y="798.88" as="sourcePoint" />
            <mxPoint x="1187.5" y="698.88" as="targetPoint" />
          </mxGeometry>
        </mxCell>
        <mxCell id="WOxA6yg11WhP7R7-6uM8-12" value="Persona" style="whiteSpace=wrap;html=1;align=center;" vertex="1" parent="1">
          <mxGeometry x="1147.5" y="741.38" width="100" height="40" as="geometry" />
        </mxCell>
        <mxCell id="WOxA6yg11WhP7R7-6uM8-13" value="" style="endArrow=none;html=1;rounded=0;exitX=0.5;exitY=1;exitDx=0;exitDy=0;" edge="1" parent="1" source="WOxA6yg11WhP7R7-6uM8-1" target="gysOdd0s8VvAOIrW8YHU-9">
          <mxGeometry relative="1" as="geometry">
            <mxPoint x="960" y="800" as="sourcePoint" />
            <mxPoint x="1120" y="800" as="targetPoint" />
          </mxGeometry>
        </mxCell>
        <mxCell id="WOxA6yg11WhP7R7-6uM8-14" value="" style="endArrow=none;html=1;rounded=0;exitX=1;exitY=0.5;exitDx=0;exitDy=0;" edge="1" parent="1" source="WOxA6yg11WhP7R7-6uM8-1" target="WOxA6yg11WhP7R7-6uM8-12">
          <mxGeometry relative="1" as="geometry">
            <mxPoint x="1000" y="810" as="sourcePoint" />
            <mxPoint x="1160" y="810" as="targetPoint" />
          </mxGeometry>
        </mxCell>
        <mxCell id="WOxA6yg11WhP7R7-6uM8-23" value="Cargo" style="whiteSpace=wrap;html=1;align=center;" vertex="1" parent="1">
          <mxGeometry x="1485.5" y="528.23" width="90.88" height="34.87" as="geometry" />
        </mxCell>
        <mxCell id="WOxA6yg11WhP7R7-6uM8-24" value="Funciones" style="ellipse;whiteSpace=wrap;html=1;align=center;" vertex="1" parent="1">
          <mxGeometry x="1479.56" y="454.57" width="100.88" height="38.62" as="geometry" />
        </mxCell>
        <mxCell id="WOxA6yg11WhP7R7-6uM8-26" value="Tiene" style="shape=rhombus;perimeter=rhombusPerimeter;whiteSpace=wrap;html=1;align=center;" vertex="1" parent="1">
          <mxGeometry x="1370.5" y="528.23" width="75" height="38.31" as="geometry" />
        </mxCell>
        <mxCell id="WOxA6yg11WhP7R7-6uM8-27" value="1:M" style="text;html=1;align=center;verticalAlign=middle;resizable=0;points=[];autosize=1;strokeColor=none;fillColor=none;" vertex="1" parent="1">
          <mxGeometry x="1388" y="563.1" width="40" height="30" as="geometry" />
        </mxCell>
        <mxCell id="WOxA6yg11WhP7R7-6uM8-28" value="" style="endArrow=none;html=1;rounded=0;entryX=0;entryY=0.5;entryDx=0;entryDy=0;" edge="1" parent="1" target="WOxA6yg11WhP7R7-6uM8-26">
          <mxGeometry relative="1" as="geometry">
            <mxPoint x="1340" y="547" as="sourcePoint" />
            <mxPoint x="1450" y="570" as="targetPoint" />
          </mxGeometry>
        </mxCell>
        <mxCell id="WOxA6yg11WhP7R7-6uM8-29" value="" style="endArrow=none;html=1;rounded=0;exitX=1;exitY=0.5;exitDx=0;exitDy=0;" edge="1" parent="1" source="WOxA6yg11WhP7R7-6uM8-26" target="WOxA6yg11WhP7R7-6uM8-23">
          <mxGeometry relative="1" as="geometry">
            <mxPoint x="1350" y="557" as="sourcePoint" />
            <mxPoint x="1381" y="557" as="targetPoint" />
          </mxGeometry>
        </mxCell>
        <mxCell id="WOxA6yg11WhP7R7-6uM8-30" value="" style="endArrow=none;html=1;rounded=0;entryX=0.5;entryY=1;entryDx=0;entryDy=0;" edge="1" parent="1" source="WOxA6yg11WhP7R7-6uM8-23" target="WOxA6yg11WhP7R7-6uM8-24">
          <mxGeometry relative="1" as="geometry">
            <mxPoint x="1456" y="557" as="sourcePoint" />
            <mxPoint x="1496" y="557" as="targetPoint" />
          </mxGeometry>
        </mxCell>
        <mxCell id="WOxA6yg11WhP7R7-6uM8-31" value="1" style="text;html=1;strokeColor=none;fillColor=none;align=center;verticalAlign=middle;whiteSpace=wrap;rounded=0;" vertex="1" parent="1">
          <mxGeometry x="1321" y="541.38" width="60" height="30" as="geometry" />
        </mxCell>
        <mxCell id="WOxA6yg11WhP7R7-6uM8-32" value="Hora" style="ellipse;whiteSpace=wrap;html=1;align=center;" vertex="1" parent="1">
          <mxGeometry x="400" y="1190" width="100" height="40" as="geometry" />
        </mxCell>
        <mxCell id="WOxA6yg11WhP7R7-6uM8-34" value="" style="endArrow=none;html=1;rounded=0;exitX=0.75;exitY=1;exitDx=0;exitDy=0;" edge="1" parent="1" source="QCKIV_hk8l9w6p_mZ0Oq-49">
          <mxGeometry relative="1" as="geometry">
            <mxPoint x="440" y="1290" as="sourcePoint" />
            <mxPoint x="450" y="1190" as="targetPoint" />
          </mxGeometry>
        </mxCell>
        <mxCell id="WOxA6yg11WhP7R7-6uM8-37" value="" style="endArrow=none;html=1;rounded=0;" edge="1" parent="1" target="-gtityMwhi8R42TeJsOI-10">
          <mxGeometry relative="1" as="geometry">
            <mxPoint x="846" y="500" as="sourcePoint" />
            <mxPoint x="1120" y="440" as="targetPoint" />
          </mxGeometry>
        </mxCell>
        <mxCell id="WOxA6yg11WhP7R7-6uM8-38" value="" style="endArrow=none;html=1;rounded=0;entryX=0.085;entryY=0.202;entryDx=0;entryDy=0;entryPerimeter=0;" edge="1" parent="1" source="tXJq_Wp9oXpG8VNzwd63-7" target="-gtityMwhi8R42TeJsOI-60">
          <mxGeometry relative="1" as="geometry">
            <mxPoint x="960" y="440" as="sourcePoint" />
            <mxPoint x="1120" y="440" as="targetPoint" />
          </mxGeometry>
        </mxCell>
        <mxCell id="WOxA6yg11WhP7R7-6uM8-39" value="&lt;font style=&quot;vertical-align: inherit;&quot;&gt;&lt;font style=&quot;vertical-align: inherit;&quot;&gt;&lt;font style=&quot;vertical-align: inherit;&quot;&gt;&lt;font style=&quot;vertical-align: inherit;&quot;&gt;&lt;font style=&quot;vertical-align: inherit;&quot;&gt;&lt;font class=&quot;custom-cursor-default-hover&quot; style=&quot;vertical-align: inherit;&quot;&gt;FechaFin&lt;/font&gt;&lt;/font&gt;&lt;/font&gt;&lt;/font&gt;&lt;/font&gt;&lt;/font&gt;" style="ellipse;whiteSpace=wrap;html=1;align=center;" vertex="1" parent="1">
          <mxGeometry x="100" y="796.38" width="100" height="40" as="geometry" />
        </mxCell>
        <mxCell id="WOxA6yg11WhP7R7-6uM8-40" value="&lt;font style=&quot;vertical-align: inherit;&quot;&gt;&lt;font style=&quot;vertical-align: inherit;&quot;&gt;&lt;font style=&quot;vertical-align: inherit;&quot;&gt;&lt;font style=&quot;vertical-align: inherit;&quot;&gt;&lt;font style=&quot;vertical-align: inherit;&quot;&gt;&lt;font class=&quot;custom-cursor-default-hover&quot; style=&quot;vertical-align: inherit;&quot;&gt;FechaInicio&lt;/font&gt;&lt;/font&gt;&lt;/font&gt;&lt;/font&gt;&lt;/font&gt;&lt;/font&gt;" style="ellipse;whiteSpace=wrap;html=1;align=center;" vertex="1" parent="1">
          <mxGeometry x="260" y="791.38" width="100" height="40" as="geometry" />
        </mxCell>
        <mxCell id="WOxA6yg11WhP7R7-6uM8-41" value="" style="endArrow=none;html=1;rounded=0;exitX=0.5;exitY=0;exitDx=0;exitDy=0;entryX=0;entryY=1;entryDx=0;entryDy=0;" edge="1" parent="1" source="WOxA6yg11WhP7R7-6uM8-39" target="V16zCYLXZQbHPPU0lnjb-38">
          <mxGeometry relative="1" as="geometry">
            <mxPoint x="390" y="620" as="sourcePoint" />
            <mxPoint x="550" y="620" as="targetPoint" />
          </mxGeometry>
        </mxCell>
        <mxCell id="WOxA6yg11WhP7R7-6uM8-42" value="" style="endArrow=none;html=1;rounded=0;exitX=0;exitY=0;exitDx=0;exitDy=0;entryX=1;entryY=1;entryDx=0;entryDy=0;" edge="1" parent="1" source="WOxA6yg11WhP7R7-6uM8-40" target="V16zCYLXZQbHPPU0lnjb-38">
          <mxGeometry relative="1" as="geometry">
            <mxPoint x="151" y="796" as="sourcePoint" />
            <mxPoint x="195" y="788" as="targetPoint" />
          </mxGeometry>
        </mxCell>
        <mxCell id="j8bDA88zqqxrRd40_bTz-1" value="FechaFinPostulaciones" style="ellipse;whiteSpace=wrap;html=1;align=center;" vertex="1" parent="1">
          <mxGeometry x="925.5" y="459.38" width="154.5" height="40.62" as="geometry" />
        </mxCell>
        <mxCell id="j8bDA88zqqxrRd40_bTz-2" value="FechaIncioPostulaciones" style="ellipse;whiteSpace=wrap;html=1;align=center;" vertex="1" parent="1">
          <mxGeometry x="771.5" y="499.38" width="154.5" height="40.62" as="geometry" />
        </mxCell>
        <mxCell id="j8bDA88zqqxrRd40_bTz-5" value="" style="endArrow=none;html=1;rounded=0;entryX=1;entryY=0.75;entryDx=0;entryDy=0;exitX=0.023;exitY=0.354;exitDx=0;exitDy=0;exitPerimeter=0;" edge="1" parent="1" source="j8bDA88zqqxrRd40_bTz-1" target="-gtityMwhi8R42TeJsOI-10">
          <mxGeometry relative="1" as="geometry">
            <mxPoint x="856" y="510" as="sourcePoint" />
            <mxPoint x="856" y="481" as="targetPoint" />
          </mxGeometry>
        </mxCell>
      </root>
    </mxGraphModel>
  </diagram>
</mxfile>
